<?xml version="1.0" encoding="utf-8"?>
<!-- Generator: Adobe Illustrator 24.0.1, SVG Export Plug-In . SVG Version: 6.00 Build 0)  -->
<svg version="1.1" id="Layer_1" xmlns="http://www.w3.org/2000/svg" xmlns:xlink="http://www.w3.org/1999/xlink" x="0px" y="0px"
	 viewBox="0 0 600.54 600.83" style="enable-background:new 0 0 600.54 600.83;" xml:space="preserve">
<style type="text/css">
	.st0{enable-background:new    ;}
	.st1{clip-path:url(#SVGID_2_);enable-background:new    ;}
	.st2{fill:#191919;}
	.st3{fill:#1A1A1A;}
	.st4{fill:#1B1B1B;}
	.st5{fill:#1C1C1C;}
	.st6{fill:#1D1D1D;}
	.st7{fill:#1E1E1E;}
	.st8{clip-path:url(#SVGID_4_);enable-background:new    ;}
	.st9{fill:#1F1F1F;}
	.st10{fill:#202020;}
	.st11{fill:#212121;}
	.st12{fill:#222222;}
	.st13{fill:#232323;}
	.st14{clip-path:url(#SVGID_6_);enable-background:new    ;}
	.st15{fill:#252525;}
	.st16{clip-path:url(#SVGID_8_);enable-background:new    ;}
	.st17{clip-path:url(#SVGID_10_);enable-background:new    ;}
	.st18{fill:#2A2A2A;}
	.st19{clip-path:url(#SVGID_12_);enable-background:new    ;}
	.st20{clip-path:url(#SVGID_14_);enable-background:new    ;}
	.st21{fill:#262626;}
	.st22{clip-path:url(#SVGID_16_);enable-background:new    ;}
	.st23{clip-path:url(#SVGID_18_);enable-background:new    ;}
	.st24{fill:#272727;}
	.st25{clip-path:url(#SVGID_20_);enable-background:new    ;}
	.st26{clip-path:url(#SVGID_22_);enable-background:new    ;}
	.st27{clip-path:url(#SVGID_24_);enable-background:new    ;}
	.st28{fill:#242424;}
	.st29{clip-path:url(#SVGID_26_);enable-background:new    ;}
	.st30{clip-path:url(#SVGID_28_);enable-background:new    ;}
	.st31{clip-path:url(#SVGID_30_);enable-background:new    ;}
	.st32{clip-path:url(#SVGID_32_);enable-background:new    ;}
	.st33{clip-path:url(#SVGID_34_);enable-background:new    ;}
	.st34{clip-path:url(#SVGID_36_);enable-background:new    ;}
	.st35{clip-path:url(#SVGID_38_);enable-background:new    ;}
	.st36{clip-path:url(#SVGID_40_);enable-background:new    ;}
	.st37{clip-path:url(#SVGID_42_);enable-background:new    ;}
	.st38{clip-path:url(#SVGID_44_);enable-background:new    ;}
	.st39{clip-path:url(#SVGID_46_);enable-background:new    ;}
	.st40{clip-path:url(#SVGID_48_);enable-background:new    ;}
	.st41{clip-path:url(#SVGID_50_);enable-background:new    ;}
	.st42{clip-path:url(#SVGID_52_);enable-background:new    ;}
	.st43{clip-path:url(#SVGID_54_);enable-background:new    ;}
	.st44{clip-path:url(#SVGID_56_);enable-background:new    ;}
	.st45{clip-path:url(#SVGID_58_);enable-background:new    ;}
	.st46{clip-path:url(#SVGID_60_);enable-background:new    ;}
	.st47{fill:#333333;}
	.st48{clip-path:url(#SVGID_62_);enable-background:new    ;}
	.st49{fill:#2C2C2C;}
	.st50{fill:#2D2D2D;}
	.st51{fill:#2F2F2F;}
	.st52{fill:#303030;}
	.st53{fill:#323232;}
	.st54{fill:#353535;}
	.st55{fill:#363636;}
	.st56{fill:#373737;}
	.st57{fill:#393939;}
	.st58{fill:#3A3A3A;}
	.st59{fill:#3C3C3C;}
	.st60{fill:#3D3D3D;}
	.st61{fill:#3F3F3F;}
	.st62{fill:#404040;}
	.st63{clip-path:url(#SVGID_64_);enable-background:new    ;}
	.st64{fill:#181818;}
	.st65{clip-path:url(#SVGID_66_);enable-background:new    ;}
	.st66{clip-path:url(#SVGID_68_);enable-background:new    ;}
	.st67{clip-path:url(#SVGID_70_);enable-background:new    ;}
	.st68{clip-path:url(#SVGID_72_);enable-background:new    ;}
	.st69{clip-path:url(#SVGID_74_);enable-background:new    ;}
	.st70{clip-path:url(#SVGID_76_);enable-background:new    ;}
	.st71{clip-path:url(#SVGID_78_);enable-background:new    ;}
	.st72{fill:#171717;}
	.st73{clip-path:url(#SVGID_80_);enable-background:new    ;}
	.st74{clip-path:url(#SVGID_82_);enable-background:new    ;}
	.st75{clip-path:url(#SVGID_84_);enable-background:new    ;}
	.st76{clip-path:url(#SVGID_86_);enable-background:new    ;}
	.st77{clip-path:url(#SVGID_88_);enable-background:new    ;}
	.st78{clip-path:url(#SVGID_90_);enable-background:new    ;}
	.st79{clip-path:url(#SVGID_92_);enable-background:new    ;}
	.st80{clip-path:url(#SVGID_94_);enable-background:new    ;}
	.st81{fill:#161616;}
	.st82{clip-path:url(#SVGID_96_);enable-background:new    ;}
	.st83{clip-path:url(#SVGID_98_);enable-background:new    ;}
	.st84{clip-path:url(#SVGID_100_);enable-background:new    ;}
	.st85{clip-path:url(#SVGID_102_);enable-background:new    ;}
	.st86{fill:#292929;}
	.st87{clip-path:url(#SVGID_104_);enable-background:new    ;}
	.st88{clip-path:url(#SVGID_106_);enable-background:new    ;}
	.st89{fill:#444444;}
	.st90{fill:#313131;}
	.st91{fill:#454545;}
	.st92{clip-path:url(#SVGID_108_);enable-background:new    ;}
	.st93{fill:#254A55;}
	.st94{fill:#244752;}
	.st95{clip-path:url(#SVGID_110_);enable-background:new    ;}
	.st96{fill:#274D58;}
	.st97{fill:#284F5C;}
	.st98{fill:#29525F;}
	.st99{fill:#2E5B69;}
	.st100{fill:#28505D;}
	.st101{fill:#418195;}
	.st102{clip-path:url(#SVGID_112_);enable-background:new    ;}
	.st103{fill:#2B5562;}
	.st104{fill:#2C5865;}
	.st105{clip-path:url(#SVGID_114_);enable-background:new    ;}
	.st106{fill:#8A8A8A;}
	.st107{fill:#858585;}
	.st108{clip-path:url(#SVGID_116_);enable-background:new    ;}
	.st109{fill:#8F8F8F;}
	.st110{fill:#949494;}
	.st111{fill:#999999;}
	.st112{fill:#AAAAAA;}
	.st113{fill:#969696;}
	.st114{fill:#F0F0F0;}
	.st115{clip-path:url(#SVGID_118_);enable-background:new    ;}
	.st116{fill:#9E9E9E;}
	.st117{fill:#A3A3A3;}
	.st118{fill:#35686C;}
	.st119{fill:#5FBDC4;}
	.st120{fill:#43858B;}
	.st121{fill:#428389;}
	.st122{fill:#468A8F;}
	.st123{fill:#3B757A;}
	.st124{fill:#428388;}
	.st125{fill:#34676B;}
</style>
<g id="computer">
	<g>
		<g>
			<g class="st0">
				<g class="st0">
					<defs>
						<path id="SVGID_1_" class="st0" d="M338.1,404.1c-0.02,0-0.05-0.01-0.07-0.01c-0.02-1.05-0.04-2.1-0.05-3.14
							c0.02,0,0.05,0.01,0.07,0.01c0.01,0,0.02,0,0.03,0.01c0.04,0.01,0.07,0.01,0.11,0.02c0.03,0.01,0.05,0.01,0.07,0.02
							c0.03,0.01,0.05,0.01,0.08,0.02c0.06,0.01,0.11,0.03,0.16,0.04c0.03,0.01,0.06,0.02,0.09,0.03c0.04,0.01,0.07,0.02,0.11,0.03
							c0.03,0.01,0.06,0.02,0.08,0.03c0.05,0.02,0.1,0.04,0.14,0.06c0.03,0.01,0.07,0.03,0.1,0.04c0.01,0.01,0.03,0.01,0.04,0.02
							l0.05,3.14c-0.01-0.01-0.03-0.01-0.04-0.02c-0.03-0.01-0.07-0.03-0.1-0.04c-0.05-0.02-0.1-0.04-0.14-0.06
							c-0.03-0.01-0.06-0.02-0.08-0.03c-0.03-0.01-0.07-0.02-0.11-0.03c-0.03-0.01-0.06-0.02-0.09-0.03
							c-0.05-0.02-0.11-0.03-0.16-0.04c-0.03-0.01-0.05-0.01-0.08-0.02c-0.03-0.01-0.05-0.01-0.07-0.02
							c-0.04-0.01-0.08-0.01-0.11-0.02C338.12,404.1,338.11,404.1,338.1,404.1z"/>
					</defs>
					<clipPath id="SVGID_2_">
						<use xlink:href="#SVGID_1_"  style="overflow:visible;"/>
					</clipPath>
					<g class="st1">
						<polyline class="st2" points="339.08,401.27 339.13,404.41 339.13,404.41 339.08,401.27 339.08,401.27 						"/>
						<path class="st3" d="M339.08,401.27l0.05,3.14c-0.01-0.01-0.03-0.01-0.04-0.02l-0.05-3.14
							C339.05,401.26,339.06,401.26,339.08,401.27"/>
						<polyline class="st2" points="339.04,401.25 339.09,404.4 339.09,404.4 339.09,404.39 339.03,401.25 339.04,401.25 
							339.04,401.25 						"/>
						<path class="st3" d="M339.03,401.25l0.05,3.14c-0.03-0.01-0.06-0.03-0.1-0.04c-0.03-0.01-0.06-0.03-0.1-0.04l-0.05-3.14
							c0.03,0.01,0.06,0.02,0.1,0.04C338.97,401.22,339,401.24,339.03,401.25"/>
						<path class="st3" d="M338.84,401.17l0.05,3.14c-0.02-0.01-0.03-0.01-0.05-0.02c-0.03-0.01-0.06-0.02-0.08-0.03
							c-0.02-0.01-0.05-0.02-0.07-0.02l-0.05-3.14c0.02,0.01,0.05,0.02,0.07,0.02c0.03,0.01,0.06,0.02,0.08,0.03
							C338.81,401.16,338.82,401.17,338.84,401.17"/>
						<path class="st4" d="M338.64,401.1l0.05,3.14c-0.01,0-0.02-0.01-0.03-0.01c-0.03-0.01-0.06-0.02-0.09-0.03
							c-0.02-0.01-0.04-0.01-0.06-0.02l-0.05-3.14c0.02,0.01,0.04,0.01,0.06,0.02c0.03,0.01,0.06,0.02,0.09,0.03
							C338.61,401.09,338.63,401.1,338.64,401.1"/>
						<path class="st5" d="M338.45,401.05l0.05,3.14c-0.04-0.01-0.07-0.02-0.11-0.03c-0.03-0.01-0.05-0.01-0.08-0.02
							c-0.02,0-0.04-0.01-0.06-0.02l-0.05-3.14c0.02,0,0.04,0.01,0.06,0.02c0.03,0.01,0.05,0.01,0.08,0.02
							C338.38,401.03,338.42,401.04,338.45,401.05"/>
						<path class="st6" d="M338.2,400.98l0.05,3.14c0,0-0.01,0-0.01,0c-0.04-0.01-0.08-0.01-0.11-0.02c-0.01,0-0.02,0-0.03-0.01
							l-0.05-3.14c0.01,0,0.02,0,0.03,0.01c0.04,0.01,0.07,0.01,0.11,0.02C338.19,400.98,338.2,400.98,338.2,400.98"/>
						<path class="st7" d="M338.04,400.95l0.05,3.14c0,0,0,0,0,0c-0.02,0-0.05-0.01-0.07-0.01c-0.04-0.01-0.08-0.01-0.12-0.02
							c-0.01,0-0.03,0-0.04,0l-0.05-3.14c0.01,0,0.03,0,0.04,0c0.04,0.01,0.08,0.01,0.12,0.02
							C338,400.95,338.02,400.95,338.04,400.95C338.04,400.95,338.04,400.95,338.04,400.95"/>
					</g>
				</g>
				<g class="st0">
					<defs>
						<path id="SVGID_3_" class="st0" d="M335.16,404.4c-0.2,0.07-0.4,0.14-0.61,0.23l-0.05-3.14c0.2-0.09,0.41-0.16,0.61-0.23
							c0.04-0.01,0.09-0.03,0.13-0.04c0.02-0.01,0.05-0.01,0.07-0.02c0.63-0.2,1.24-0.3,1.81-0.31c0.25,0,0.49,0.01,0.74,0.04
							c0.04,0.01,0.08,0.01,0.12,0.02c0.02,1.05,0.04,2.09,0.05,3.14c-0.02-1.05-0.04-2.09-0.05-3.14c0,0,0,0,0,0c0,0,0,0,0,0
							c0.02,1.05,0.04,2.1,0.05,3.14c0,0,0,0,0,0c-0.04-0.01-0.08-0.01-0.12-0.02c-0.25-0.03-0.49-0.05-0.74-0.04
							c-0.57,0.01-1.18,0.11-1.81,0.31c-0.02,0.01-0.05,0.01-0.07,0.02C335.24,404.37,335.2,404.39,335.16,404.4z"/>
					</defs>
					<clipPath id="SVGID_4_">
						<use xlink:href="#SVGID_3_"  style="overflow:visible;"/>
					</clipPath>
					<g class="st8">
						<path class="st7" d="M338.04,400.95l0.05,3.14c0,0,0,0,0,0c-0.02,0-0.05-0.01-0.07-0.01c-0.04-0.01-0.08-0.01-0.12-0.02
							c-0.01,0-0.03,0-0.04,0l-0.05-3.14c0.01,0,0.03,0,0.04,0c0.04,0.01,0.08,0.01,0.12,0.02
							C338,400.95,338.02,400.95,338.04,400.95C338.04,400.95,338.04,400.95,338.04,400.95"/>
						<path class="st7" d="M337.82,400.92l0.05,3.14c-0.09-0.01-0.18-0.02-0.26-0.03l-0.05-3.14
							C337.64,400.9,337.73,400.91,337.82,400.92"/>
						<path class="st9" d="M337.55,400.9l0.05,3.14c-0.09-0.01-0.18-0.01-0.27-0.01l-0.05-3.14
							C337.37,400.89,337.46,400.89,337.55,400.9"/>
						<path class="st10" d="M337.29,400.89l0.05,3.14c-0.06,0-0.12,0-0.17,0c-0.04,0-0.08,0-0.12,0l-0.05-3.14c0.04,0,0.08,0,0.12,0
							C337.17,400.88,337.23,400.88,337.29,400.89"/>
						<path class="st11" d="M336.99,400.89l0.05,3.14c-0.12,0-0.24,0.01-0.37,0.03l-0.05-3.14
							C336.75,400.9,336.87,400.89,336.99,400.89"/>
						<path class="st12" d="M336.62,400.92l0.05,3.14c-0.16,0.02-0.32,0.04-0.48,0.07l-0.05-3.14
							C336.31,400.96,336.47,400.93,336.62,400.92"/>
						<path class="st12" d="M336.14,400.98l0.05,3.14c-0.26,0.05-0.52,0.11-0.78,0.19l-0.05-3.14
							C335.63,401.09,335.89,401.03,336.14,400.98"/>
						<path class="st13" d="M335.36,401.17l0.05,3.14c-0.02,0.01-0.04,0.01-0.06,0.02c-0.02,0.01-0.05,0.01-0.07,0.02
							c-0.04,0.01-0.09,0.03-0.13,0.04c-0.2,0.07-0.4,0.14-0.61,0.23l-0.05-3.14c0.2-0.09,0.41-0.16,0.61-0.23
							c0.04-0.01,0.09-0.03,0.13-0.04c0.02-0.01,0.05-0.01,0.07-0.02C335.32,401.19,335.34,401.18,335.36,401.17"/>
					</g>
				</g>
				<g>
					<polygon class="st4" points="334.49,401.48 334.55,404.63 330.09,402.47 330.03,399.33 					"/>
				</g>
				<g class="st0">
					<defs>
						<path id="SVGID_5_" class="st0" d="M334.49,401.48l0.05,3.14c-0.09,0.04-0.17,0.07-0.26,0.11c-0.02,0.01-0.04,0.02-0.05,0.02
							l-0.05-3.14c0.02-0.01,0.04-0.02,0.05-0.02C334.32,401.56,334.41,401.52,334.49,401.48z"/>
					</defs>
					<clipPath id="SVGID_6_">
						<use xlink:href="#SVGID_5_"  style="overflow:visible;"/>
					</clipPath>
					<g class="st14">
						<path class="st15" d="M334.49,401.48l0.05,3.14c-0.09,0.04-0.17,0.07-0.26,0.11c-0.02,0.01-0.04,0.02-0.05,0.02l-0.05-3.14
							c0.02-0.01,0.04-0.02,0.05-0.02C334.32,401.56,334.41,401.52,334.49,401.48"/>
					</g>
				</g>
				<g class="st0">
					<defs>
						<path id="SVGID_7_" class="st0" d="M334.18,401.62l0.05,3.14c0,0-0.01,0-0.01,0.01c-0.01,0-0.02,0.01-0.03,0.02l-0.05-3.14
							c0.01,0,0.02-0.01,0.03-0.02C334.17,401.63,334.18,401.62,334.18,401.62z"/>
					</defs>
					<clipPath id="SVGID_8_">
						<use xlink:href="#SVGID_7_"  style="overflow:visible;"/>
					</clipPath>
					<g class="st16">
						<path class="st15" d="M334.18,401.62l0.05,3.14c0,0-0.01,0-0.01,0.01c-0.01,0-0.02,0.01-0.03,0.02l-0.05-3.14
							c0.01,0,0.02-0.01,0.03-0.02C334.17,401.63,334.18,401.62,334.18,401.62"/>
					</g>
				</g>
				<g class="st0">
					<defs>
						<path id="SVGID_9_" class="st0" d="M334.11,404.83c-0.11,0.05-0.22,0.11-0.33,0.17c-0.02-0.93-0.03-1.85-0.05-2.78l-0.01-0.37
							c0.11-0.06,0.22-0.11,0.33-0.17c0.03-0.01,0.06-0.03,0.08-0.04l0.05,3.14C334.16,404.8,334.14,404.81,334.11,404.83z"/>
					</defs>
					<clipPath id="SVGID_10_">
						<use xlink:href="#SVGID_9_"  style="overflow:visible;"/>
					</clipPath>
					<g class="st17">
						<path class="st15" d="M334.14,401.64l0.05,3.14c-0.03,0.01-0.06,0.03-0.08,0.04c-0.11,0.05-0.22,0.11-0.33,0.17l-0.05-3.14
							c0.11-0.06,0.22-0.11,0.33-0.17C334.08,401.67,334.11,401.66,334.14,401.64"/>
					</g>
				</g>
				<g>
					<polygon class="st5" points="333.72,401.85 333.77,404.99 329.3,402.84 329.24,399.7 					"/>
				</g>
				<g>
					<polygon class="st7" points="254.98,442.95 255.04,446.09 250.56,443.94 250.51,440.8 					"/>
				</g>
				<g>
					<polygon class="st18" points="333.72,401.85 333.77,404.99 255.04,446.09 254.98,442.95 					"/>
				</g>
				<g class="st0">
					<defs>
						<path id="SVGID_11_" class="st0" d="M254.98,442.95l0.05,3.14c-0.23,0.12-0.45,0.24-0.67,0.38l-0.05-3.14
							C254.53,443.19,254.75,443.07,254.98,442.95z"/>
					</defs>
					<clipPath id="SVGID_12_">
						<use xlink:href="#SVGID_11_"  style="overflow:visible;"/>
					</clipPath>
					<g class="st19">
						<path class="st15" d="M254.98,442.95l0.05,3.14c-0.23,0.12-0.45,0.24-0.67,0.38l-0.05-3.14
							C254.53,443.19,254.75,443.07,254.98,442.95"/>
					</g>
				</g>
				<g>
					<polygon class="st5" points="254.31,443.33 254.37,446.47 249.9,444.32 249.84,441.18 					"/>
				</g>
				<g class="st0">
					<defs>
						<path id="SVGID_13_" class="st0" d="M254.31,443.33l0.05,3.14c-0.03,0.02-0.07,0.04-0.1,0.06c-0.07,0.04-0.12,0.08-0.18,0.12
							l-0.05-3.14c0.06-0.04,0.12-0.07,0.18-0.12C254.25,443.37,254.28,443.35,254.31,443.33z"/>
					</defs>
					<clipPath id="SVGID_14_">
						<use xlink:href="#SVGID_13_"  style="overflow:visible;"/>
					</clipPath>
					<g class="st20">
						<path class="st21" d="M254.31,443.33l0.05,3.14c-0.03,0.02-0.07,0.04-0.1,0.06c-0.07,0.04-0.12,0.08-0.18,0.12l-0.05-3.14
							c0.06-0.04,0.12-0.07,0.18-0.12C254.25,443.37,254.28,443.35,254.31,443.33"/>
					</g>
				</g>
				<g>
					<polygon class="st6" points="253.1,444.17 253.16,447.31 248.69,445.16 248.63,442.02 					"/>
				</g>
				<g class="st0">
					<defs>
						<path id="SVGID_15_" class="st0" d="M254.03,443.51l0.05,3.14c0,0-0.01,0.01-0.01,0.01c-0.07,0.04-0.13,0.08-0.19,0.12
							c-0.11,0.07-0.21,0.15-0.31,0.22c-0.06,0.05-0.13,0.09-0.19,0.14c-0.02,0.02-0.05,0.03-0.07,0.05
							c-0.05,0.04-0.11,0.08-0.16,0.12l-0.05-3.14c0.05-0.04,0.11-0.08,0.16-0.12c0.02-0.02,0.05-0.03,0.07-0.05
							c0.06-0.05,0.13-0.09,0.19-0.14c0.1-0.07,0.2-0.15,0.31-0.22c0.06-0.04,0.12-0.08,0.19-0.12
							C254.02,443.51,254.03,443.51,254.03,443.51z"/>
					</defs>
					<clipPath id="SVGID_16_">
						<use xlink:href="#SVGID_15_"  style="overflow:visible;"/>
					</clipPath>
					<g class="st22">
						<path class="st21" d="M254.03,443.51l0.05,3.14c0,0-0.01,0.01-0.01,0.01c-0.03,0.02-0.06,0.04-0.1,0.06l-0.05-3.14
							c0.03-0.02,0.06-0.04,0.1-0.06C254.02,443.51,254.03,443.51,254.03,443.51"/>
						<path class="st15" d="M253.92,443.58l0.05,3.14c-0.03,0.02-0.06,0.04-0.09,0.06c-0.11,0.07-0.21,0.15-0.31,0.22
							c-0.06,0.05-0.13,0.09-0.19,0.14c-0.02,0.02-0.05,0.03-0.07,0.05c-0.05,0.04-0.11,0.08-0.16,0.12l-0.05-3.14
							c0.05-0.04,0.11-0.08,0.16-0.12c0.02-0.02,0.05-0.03,0.07-0.05c0.06-0.05,0.13-0.09,0.19-0.14c0.1-0.07,0.2-0.15,0.31-0.22
							C253.86,443.62,253.89,443.6,253.92,443.58"/>
					</g>
				</g>
				<g class="st0">
					<defs>
						<path id="SVGID_17_" class="st0" d="M253.1,444.17l0.05,3.14c-0.4,0.31-0.78,0.65-1.14,1l-0.05-3.14
							C252.32,444.81,252.7,444.48,253.1,444.17z"/>
					</defs>
					<clipPath id="SVGID_18_">
						<use xlink:href="#SVGID_17_"  style="overflow:visible;"/>
					</clipPath>
					<g class="st23">
						<path class="st24" d="M253.1,444.17l0.05,3.14c-0.16,0.12-0.32,0.25-0.47,0.38l-0.05-3.14
							C252.79,444.42,252.94,444.29,253.1,444.17"/>
						<path class="st21" d="M252.64,444.55l0.05,3.14c-0.23,0.2-0.46,0.4-0.68,0.62l-0.05-3.14
							C252.18,444.95,252.4,444.75,252.64,444.55"/>
					</g>
				</g>
				<g>
					<polygon class="st7" points="251.96,445.17 252.02,448.31 247.55,446.16 247.49,443.02 					"/>
				</g>
				<g class="st0">
					<defs>
						<path id="SVGID_19_" class="st0" d="M251.96,445.17l0.05,3.14c-0.12,0.11-0.23,0.23-0.34,0.34c-0.06,0.06-0.12,0.13-0.18,0.19
							c-0.03,0.03-0.05,0.06-0.08,0.08c-0.2,0.22-0.39,0.44-0.57,0.66l-0.05-3.14c0.18-0.22,0.37-0.44,0.57-0.66
							c0.02-0.03,0.05-0.05,0.08-0.08c0.06-0.06,0.12-0.13,0.18-0.19C251.73,445.4,251.84,445.28,251.96,445.17z"/>
					</defs>
					<clipPath id="SVGID_20_">
						<use xlink:href="#SVGID_19_"  style="overflow:visible;"/>
					</clipPath>
					<g class="st25">
						<path class="st24" d="M251.96,445.17l0.05,3.14c-0.07,0.07-0.14,0.14-0.2,0.2l-0.05-3.14
							C251.82,445.31,251.89,445.24,251.96,445.17"/>
						<path class="st21" d="M251.76,445.37l0.05,3.14c-0.05,0.05-0.09,0.09-0.13,0.14c-0.06,0.06-0.12,0.13-0.18,0.19
							c-0.03,0.03-0.05,0.06-0.08,0.08c-0.16,0.17-0.31,0.35-0.46,0.52l-0.05-3.14c0.15-0.17,0.3-0.35,0.46-0.52
							c0.02-0.03,0.05-0.05,0.08-0.08c0.06-0.06,0.12-0.13,0.18-0.19C251.67,445.47,251.71,445.42,251.76,445.37"/>
						<path class="st15" d="M250.9,446.31l0.05,3.14c-0.04,0.05-0.08,0.09-0.12,0.14l-0.05-3.14
							C250.82,446.4,250.86,446.36,250.9,446.31"/>
					</g>
				</g>
				<g>
					<polygon class="st9" points="250.79,446.45 250.84,449.59 246.37,447.45 246.31,444.3 					"/>
				</g>
				<g class="st0">
					<defs>
						<path id="SVGID_21_" class="st0" d="M250.78,446.45l0.05,3.14c-0.06,0.08-0.13,0.16-0.19,0.23c-0.01,0.02-0.02,0.03-0.04,0.05
							c-0.05,0.06-0.1,0.13-0.15,0.19c-0.01,0.02-0.02,0.03-0.04,0.05c-0.12,0.16-0.24,0.32-0.35,0.48
							c-0.01,0.02-0.02,0.03-0.03,0.05c-0.05,0.07-0.1,0.14-0.15,0.21l-0.05-3.14c0.05-0.07,0.1-0.14,0.15-0.21
							c0.01-0.02,0.02-0.03,0.03-0.05c0.11-0.16,0.23-0.32,0.35-0.48c0.01-0.02,0.02-0.03,0.04-0.05c0.05-0.06,0.1-0.13,0.15-0.19
							c0.01-0.02,0.02-0.03,0.04-0.05C250.66,446.61,250.72,446.53,250.78,446.45z"/>
					</defs>
					<clipPath id="SVGID_22_">
						<use xlink:href="#SVGID_21_"  style="overflow:visible;"/>
					</clipPath>
					<g class="st26">
						<path class="st21" d="M250.78,446.45l0.05,3.14c-0.06,0.08-0.13,0.16-0.19,0.23c-0.01,0.02-0.02,0.03-0.04,0.05
							c-0.05,0.06-0.1,0.13-0.15,0.19c-0.01,0.02-0.02,0.03-0.04,0.05c-0.05,0.07-0.1,0.13-0.15,0.2l-0.05-3.14
							c0.05-0.07,0.1-0.13,0.15-0.2c0.01-0.02,0.02-0.03,0.04-0.05c0.05-0.06,0.1-0.13,0.15-0.19c0.01-0.02,0.02-0.03,0.04-0.05
							C250.66,446.61,250.72,446.53,250.78,446.45"/>
						<path class="st15" d="M250.22,447.17l0.05,3.14c-0.07,0.09-0.13,0.19-0.2,0.28c-0.01,0.02-0.02,0.03-0.03,0.05
							c-0.05,0.07-0.1,0.14-0.15,0.21l-0.05-3.14c0.05-0.07,0.1-0.14,0.15-0.21c0.01-0.02,0.02-0.03,0.03-0.05
							C250.09,447.36,250.16,447.27,250.22,447.17"/>
					</g>
				</g>
				<g>
					<polygon class="st10" points="249.33,448.53 249.39,451.68 244.91,449.54 244.86,446.39 					"/>
				</g>
				<g class="st0">
					<defs>
						<path id="SVGID_23_" class="st0" d="M249.85,447.71l0.05,3.14c-0.01,0.01-0.01,0.02-0.02,0.03c-0.11,0.17-0.22,0.33-0.32,0.5
							c-0.01,0.02-0.02,0.03-0.03,0.05c-0.05,0.08-0.1,0.16-0.14,0.24l-0.05-3.14c0.05-0.08,0.09-0.16,0.14-0.24
							c0.01-0.02,0.02-0.03,0.03-0.05c0.1-0.17,0.21-0.34,0.32-0.5C249.83,447.73,249.84,447.72,249.85,447.71z"/>
					</defs>
					<clipPath id="SVGID_24_">
						<use xlink:href="#SVGID_23_"  style="overflow:visible;"/>
					</clipPath>
					<g class="st27">
						<path class="st15" d="M249.85,447.71l0.05,3.14c-0.01,0.01-0.01,0.02-0.02,0.03c-0.06,0.09-0.12,0.19-0.18,0.28l-0.05-3.14
							c0.06-0.09,0.12-0.19,0.18-0.28C249.83,447.73,249.84,447.72,249.85,447.71"/>
						<path class="st28" d="M249.64,448.03l0.05,3.14c-0.05,0.07-0.09,0.15-0.14,0.22c-0.01,0.02-0.02,0.03-0.03,0.05
							c-0.05,0.08-0.1,0.16-0.14,0.24l-0.05-3.14c0.05-0.08,0.09-0.16,0.14-0.24c0.01-0.02,0.02-0.03,0.03-0.05
							C249.55,448.18,249.59,448.1,249.64,448.03"/>
					</g>
				</g>
				<g class="st0">
					<defs>
						<path id="SVGID_25_" class="st0" d="M249.33,448.54l0.05,3.14c-0.05,0.09-0.1,0.18-0.15,0.26c-0.05,0.09-0.09,0.17-0.14,0.25
							l-0.05-3.14c0.04-0.08,0.09-0.16,0.14-0.25C249.22,448.72,249.27,448.63,249.33,448.54z"/>
					</defs>
					<clipPath id="SVGID_26_">
						<use xlink:href="#SVGID_25_"  style="overflow:visible;"/>
					</clipPath>
					<g class="st29">
						<path class="st15" d="M249.33,448.54l0.05,3.14c-0.05,0.09-0.1,0.18-0.15,0.26c-0.01,0.02-0.02,0.03-0.03,0.05l-0.05-3.14
							c0.01-0.02,0.02-0.03,0.03-0.05C249.22,448.72,249.27,448.63,249.33,448.54"/>
						<path class="st28" d="M249.15,448.86l0.05,3.14c-0.04,0.07-0.07,0.13-0.11,0.2l-0.05-3.14
							C249.07,448.99,249.11,448.93,249.15,448.86"/>
					</g>
				</g>
				<g class="st0">
					<defs>
						<path id="SVGID_27_" class="st0" d="M249.04,449.06l0.05,3.14c-0.01,0.01-0.01,0.02-0.02,0.04c-0.04,0.08-0.09,0.17-0.13,0.25
							c-0.09,0.18-0.18,0.36-0.26,0.53l-0.05-3.14c0.08-0.18,0.17-0.36,0.26-0.53c0.04-0.08,0.09-0.17,0.13-0.25
							C249.02,449.08,249.03,449.07,249.04,449.06z"/>
					</defs>
					<clipPath id="SVGID_28_">
						<use xlink:href="#SVGID_27_"  style="overflow:visible;"/>
					</clipPath>
					<g class="st30">
						<path class="st28" d="M249.04,449.06l0.05,3.14c-0.01,0.01-0.01,0.02-0.02,0.04c-0.04,0.08-0.09,0.17-0.13,0.25
							c-0.06,0.11-0.11,0.22-0.16,0.33l-0.05-3.14c0.05-0.11,0.11-0.22,0.16-0.33c0.04-0.08,0.09-0.17,0.13-0.25
							C249.02,449.08,249.03,449.07,249.04,449.06"/>
						<path class="st13" d="M248.72,449.68l0.05,3.14c-0.03,0.07-0.06,0.13-0.09,0.2l-0.05-3.14
							C248.66,449.81,248.69,449.75,248.72,449.68"/>
					</g>
				</g>
				<g class="st0">
					<defs>
						<path id="SVGID_29_" class="st0" d="M248.63,449.88l0.05,3.14c0,0.01-0.01,0.02-0.01,0.02c-0.12,0.27-0.23,0.54-0.34,0.81
							l-0.05-3.14c0.1-0.27,0.21-0.54,0.34-0.81C248.62,449.89,248.63,449.89,248.63,449.88z"/>
					</defs>
					<clipPath id="SVGID_30_">
						<use xlink:href="#SVGID_29_"  style="overflow:visible;"/>
					</clipPath>
					<g class="st31">
						<path class="st13" d="M248.63,449.88l0.05,3.14c0,0.01-0.01,0.02-0.01,0.02c-0.08,0.19-0.16,0.37-0.24,0.56l-0.05-3.14
							c0.08-0.19,0.15-0.37,0.24-0.56C248.62,449.89,248.63,449.89,248.63,449.88"/>
						<path class="st12" d="M248.38,450.46l0.05,3.14c-0.03,0.08-0.07,0.17-0.1,0.25l-0.05-3.14
							C248.31,450.63,248.35,450.54,248.38,450.46"/>
					</g>
				</g>
				<g class="st0">
					<defs>
						<path id="SVGID_31_" class="st0" d="M248.28,450.71l0.05,3.14c0,0.01-0.01,0.02-0.01,0.02c-0.02,0.07-0.05,0.12-0.07,0.18
							l-0.05-3.14c0.02-0.06,0.04-0.12,0.07-0.18C248.28,450.73,248.28,450.72,248.28,450.71z"/>
					</defs>
					<clipPath id="SVGID_32_">
						<use xlink:href="#SVGID_31_"  style="overflow:visible;"/>
					</clipPath>
					<g class="st32">
						<path class="st12" d="M248.28,450.71l0.05,3.14c0,0.01-0.01,0.02-0.01,0.02c-0.02,0.07-0.05,0.12-0.07,0.18l-0.05-3.14
							c0.02-0.06,0.04-0.12,0.07-0.18C248.28,450.73,248.28,450.72,248.28,450.71"/>
					</g>
				</g>
				<g class="st0">
					<defs>
						<path id="SVGID_33_" class="st0" d="M248.21,450.91l0.05,3.14c-0.01,0.02-0.01,0.03-0.02,0.05c-0.02,0.06-0.04,0.12-0.06,0.17
							l-0.05-3.14c0.02-0.06,0.04-0.11,0.06-0.17C248.19,450.95,248.2,450.93,248.21,450.91z"/>
					</defs>
					<clipPath id="SVGID_34_">
						<use xlink:href="#SVGID_33_"  style="overflow:visible;"/>
					</clipPath>
					<g class="st33">
						<path class="st12" d="M248.21,450.91l0.05,3.14c-0.01,0.02-0.01,0.03-0.02,0.05c-0.02,0.06-0.04,0.12-0.06,0.17l-0.05-3.14
							c0.02-0.06,0.04-0.11,0.06-0.17C248.19,450.95,248.2,450.93,248.21,450.91"/>
					</g>
				</g>
				<g class="st0">
					<defs>
						<path id="SVGID_35_" class="st0" d="M248.13,451.14l0.05,3.14c-0.01,0.02-0.01,0.03-0.01,0.04c-0.02,0.06-0.04,0.12-0.06,0.19
							l-0.05-3.14c0.02-0.06,0.04-0.12,0.06-0.19C248.12,451.17,248.12,451.15,248.13,451.14z"/>
					</defs>
					<clipPath id="SVGID_36_">
						<use xlink:href="#SVGID_35_"  style="overflow:visible;"/>
					</clipPath>
					<g class="st34">
						<path class="st12" d="M248.13,451.14l0.05,3.14c-0.01,0.02-0.01,0.03-0.01,0.04c0,0.01,0,0.01-0.01,0.02l-0.05-3.14
							c0-0.01,0-0.01,0.01-0.02C248.12,451.17,248.12,451.15,248.13,451.14"/>
						<path class="st11" d="M248.11,451.2l0.05,3.14c-0.02,0.06-0.04,0.11-0.06,0.17l-0.05-3.14
							C248.07,451.31,248.09,451.25,248.11,451.2"/>
					</g>
				</g>
				<g class="st0">
					<defs>
						<path id="SVGID_37_" class="st0" d="M248.05,451.37l0.05,3.14c0,0.01-0.01,0.02-0.01,0.02c-0.03,0.11-0.07,0.22-0.1,0.32
							c-0.03,0.12-0.06,0.22-0.09,0.33l-0.05-3.14c0.03-0.11,0.06-0.21,0.09-0.33c0.03-0.11,0.06-0.22,0.1-0.32
							C248.05,451.38,248.05,451.38,248.05,451.37z"/>
					</defs>
					<clipPath id="SVGID_38_">
						<use xlink:href="#SVGID_37_"  style="overflow:visible;"/>
					</clipPath>
					<g class="st35">
						<path class="st11" d="M248.05,451.37l0.05,3.14c0,0.01-0.01,0.02-0.01,0.02c-0.03,0.11-0.07,0.22-0.1,0.32
							c-0.02,0.07-0.04,0.13-0.05,0.2l-0.05-3.14c0.02-0.06,0.04-0.13,0.05-0.2c0.03-0.11,0.06-0.22,0.1-0.32
							C248.05,451.38,248.05,451.38,248.05,451.37"/>
						<path class="st10" d="M247.89,451.91l0.05,3.14c-0.01,0.04-0.02,0.09-0.03,0.13l-0.05-3.14
							C247.87,452,247.88,451.96,247.89,451.91"/>
					</g>
				</g>
				<g>
					<polygon class="st11" points="247.86,452.04 247.91,455.18 243.45,453.04 243.39,449.89 					"/>
				</g>
				<g class="st0">
					<defs>
						<path id="SVGID_39_" class="st0" d="M247.86,452.05l0.05,3.14c-0.02,0.09-0.04,0.18-0.06,0.27c-0.02,0.08-0.04,0.16-0.05,0.25
							l-0.05-3.14c0.02-0.08,0.03-0.16,0.05-0.25C247.81,452.22,247.83,452.14,247.86,452.05z"/>
					</defs>
					<clipPath id="SVGID_40_">
						<use xlink:href="#SVGID_39_"  style="overflow:visible;"/>
					</clipPath>
					<g class="st36">
						<path class="st10" d="M247.86,452.05l0.05,3.14c-0.02,0.09-0.04,0.18-0.06,0.27c-0.02,0.08-0.04,0.16-0.05,0.24l-0.05-3.14
							c0.02-0.08,0.03-0.16,0.05-0.24C247.81,452.22,247.83,452.14,247.86,452.05"/>
						<polyline class="st9" points="247.74,452.56 247.8,455.7 247.8,455.7 247.74,452.56 247.74,452.56 						"/>
					</g>
				</g>
				<g class="st0">
					<defs>
						<path id="SVGID_41_" class="st0" d="M247.74,452.56l0.05,3.14c0,0.02-0.01,0.03-0.01,0.05c-0.01,0.07-0.03,0.14-0.04,0.21
							l-0.05-3.14c0.01-0.07,0.03-0.14,0.04-0.21C247.73,452.59,247.74,452.57,247.74,452.56z"/>
					</defs>
					<clipPath id="SVGID_42_">
						<use xlink:href="#SVGID_41_"  style="overflow:visible;"/>
					</clipPath>
					<g class="st37">
						<path class="st9" d="M247.74,452.56l0.05,3.14c0,0.02-0.01,0.03-0.01,0.05c-0.01,0.07-0.03,0.14-0.04,0.21l-0.05-3.14
							c0.01-0.07,0.03-0.14,0.04-0.21C247.73,452.59,247.74,452.57,247.74,452.56"/>
					</g>
				</g>
				<g class="st0">
					<defs>
						<path id="SVGID_43_" class="st0" d="M247.69,452.82l0.05,3.14c0,0.01-0.01,0.03-0.01,0.04c-0.03,0.17-0.05,0.33-0.07,0.5
							l-0.05-3.14c0.02-0.17,0.04-0.33,0.07-0.5C247.69,452.84,247.69,452.83,247.69,452.82z"/>
					</defs>
					<clipPath id="SVGID_44_">
						<use xlink:href="#SVGID_43_"  style="overflow:visible;"/>
					</clipPath>
					<g class="st38">
						<path class="st9" d="M247.69,452.82l0.05,3.14c0,0.01-0.01,0.03-0.01,0.04c-0.02,0.12-0.04,0.24-0.05,0.35l-0.05-3.14
							c0.02-0.12,0.03-0.23,0.05-0.35C247.69,452.84,247.69,452.83,247.69,452.82"/>
						<path class="st7" d="M247.63,453.21l0.05,3.14c-0.01,0.05-0.01,0.1-0.02,0.15l-0.05-3.14
							C247.62,453.31,247.62,453.26,247.63,453.21"/>
					</g>
				</g>
				<g class="st0">
					<defs>
						<path id="SVGID_45_" class="st0" d="M247.61,453.36l0.05,3.14c0,0.01,0,0.03-0.01,0.04c-0.01,0.07-0.01,0.14-0.02,0.2
							l-0.05-3.14c0.01-0.07,0.01-0.14,0.02-0.2C247.61,453.39,247.61,453.37,247.61,453.36z"/>
					</defs>
					<clipPath id="SVGID_46_">
						<use xlink:href="#SVGID_45_"  style="overflow:visible;"/>
					</clipPath>
					<g class="st39">
						<path class="st7" d="M247.61,453.36l0.05,3.14c0,0.01,0,0.03-0.01,0.04c-0.01,0.07-0.01,0.14-0.02,0.2l-0.05-3.14
							c0.01-0.07,0.01-0.14,0.02-0.2C247.61,453.39,247.61,453.37,247.61,453.36"/>
					</g>
				</g>
				<g class="st0">
					<defs>
						<path id="SVGID_47_" class="st0" d="M247.58,453.65l0.05,3.14c-0.01,0.08-0.01,0.15-0.02,0.23l-0.05-3.14
							C247.57,453.8,247.57,453.73,247.58,453.65z"/>
					</defs>
					<clipPath id="SVGID_48_">
						<use xlink:href="#SVGID_47_"  style="overflow:visible;"/>
					</clipPath>
					<g class="st40">
						<path class="st7" d="M247.58,453.65l0.05,3.14c0,0.06-0.01,0.12-0.01,0.17l-0.05-3.14
							C247.57,453.77,247.58,453.71,247.58,453.65"/>
						<path class="st6" d="M247.57,453.83l0.05,3.14c0,0.02,0,0.04,0,0.05l-0.05-3.14C247.57,453.86,247.57,453.84,247.57,453.83"/>
					</g>
				</g>
				<g class="st0">
					<defs>
						<path id="SVGID_49_" class="st0" d="M247.59,453.6l0.05,3.14c0,0.02,0,0.03,0,0.05l-0.05-3.14
							C247.58,453.64,247.58,453.62,247.59,453.6z"/>
					</defs>
					<clipPath id="SVGID_50_">
						<use xlink:href="#SVGID_49_"  style="overflow:visible;"/>
					</clipPath>
					<g class="st41">
						<path class="st7" d="M247.59,453.6l0.05,3.14c0,0.02,0,0.03,0,0.05l-0.05-3.14C247.58,453.64,247.58,453.62,247.59,453.6"/>
					</g>
				</g>
				<g class="st0">
					<defs>
						<path id="SVGID_51_" class="st0" d="M247.56,453.89l0.05,3.14c0,0.08-0.01,0.17-0.01,0.25l-0.05-3.14
							C247.55,454.06,247.56,453.98,247.56,453.89z"/>
					</defs>
					<clipPath id="SVGID_52_">
						<use xlink:href="#SVGID_51_"  style="overflow:visible;"/>
					</clipPath>
					<g class="st42">
						<path class="st6" d="M247.56,453.89l0.05,3.14c0,0.08-0.01,0.17-0.01,0.25l-0.05-3.14
							C247.55,454.06,247.56,453.98,247.56,453.89"/>
					</g>
				</g>
				<g class="st0">
					<defs>
						<path id="SVGID_53_" class="st0" d="M247.56,453.88l0.05,3.14c0,0,0,0.01,0,0.01l-0.05-3.14
							C247.56,453.89,247.56,453.88,247.56,453.88z"/>
					</defs>
					<clipPath id="SVGID_54_">
						<use xlink:href="#SVGID_53_"  style="overflow:visible;"/>
					</clipPath>
					<g class="st43">
						<polyline class="st6" points="247.56,453.88 247.62,457.02 247.62,457.03 247.56,453.88 247.56,453.88 						"/>
						<polyline class="st7" points="247.56,453.88 247.62,457.03 247.62,457.03 247.56,453.89 247.56,453.88 						"/>
						<polyline class="st6" points="247.56,453.89 247.62,457.03 247.62,457.04 247.56,453.89 247.56,453.89 						"/>
					</g>
				</g>
				<g>
					<polygon class="st10" points="247.55,454.14 247.61,457.29 243.14,455.14 243.09,452 					"/>
				</g>
				<g class="st0">
					<defs>
						<path id="SVGID_55_" class="st0" d="M247.61,457.64l-0.05-3.14c0-0.06,0-0.11,0-0.17l0.05,3.14
							C247.6,457.53,247.6,457.59,247.61,457.64z"/>
					</defs>
					<clipPath id="SVGID_56_">
						<use xlink:href="#SVGID_55_"  style="overflow:visible;"/>
					</clipPath>
					<g class="st44">
						<path class="st5" d="M247.55,454.33l0.05,3.14c0,0.03,0,0.06,0,0.09l-0.05-3.14C247.55,454.39,247.55,454.36,247.55,454.33"/>
						<path class="st4" d="M247.55,454.42l0.05,3.14c0,0.02,0,0.05,0,0.07l-0.05-3.14C247.55,454.47,247.55,454.45,247.55,454.42"/>
					</g>
				</g>
				<g class="st0">
					<defs>
						<path id="SVGID_57_" class="st0" d="M247.55,454.19l0.05,3.14c0,0.05,0,0.09,0,0.14l-0.05-3.14
							C247.55,454.28,247.55,454.24,247.55,454.19z"/>
					</defs>
					<clipPath id="SVGID_58_">
						<use xlink:href="#SVGID_57_"  style="overflow:visible;"/>
					</clipPath>
					<g class="st45">
						<path class="st5" d="M247.55,454.19l0.05,3.14c0,0.05,0,0.09,0,0.14l-0.05-3.14C247.55,454.28,247.55,454.24,247.55,454.19"/>
					</g>
				</g>
				<g class="st0">
					<defs>
						<path id="SVGID_59_" class="st0" d="M247.55,454.15l0.05,3.14c0,0.01,0,0.03,0,0.04l-0.05-3.14
							C247.55,454.17,247.55,454.16,247.55,454.15z"/>
					</defs>
					<clipPath id="SVGID_60_">
						<use xlink:href="#SVGID_59_"  style="overflow:visible;"/>
					</clipPath>
					<g class="st46">
						<path class="st5" d="M247.55,454.15l0.05,3.14c0,0.01,0,0.03,0,0.04l-0.05-3.14C247.55,454.17,247.55,454.16,247.55,454.15"/>
					</g>
				</g>
				<g>
					<path class="st47" d="M341.45,405.5l0.1,4.43c0.09,4.18-3.26,9.38-7.42,11.56l-78.74,41.1c-1.22,0.63-2.37,0.94-3.4,0.96
						c-0.81,0.01-1.55-0.15-2.17-0.49c-0.14-0.07-0.27-0.16-0.4-0.25c-0.1-0.07-0.2-0.15-0.29-0.23c-0.07-0.06-0.13-0.12-0.2-0.19
						c-0.59-0.65-0.94-1.33-1.12-2.15c-0.15-1.04-0.15-1.17-0.15-1.31l-0.1-4.43c-0.08-4.18,3.26-9.39,7.43-11.57l78.74-41.1
						c1.21-0.63,2.37-0.94,3.4-0.96c0.3-0.01,0.58,0.01,0.86,0.06c0.53,0.1,0.83,0.2,1.11,0.33
						C340.5,401.92,341.41,403.39,341.45,405.5z"/>
				</g>
				<g>
					<path class="st5" d="M334.43,399.05c0.01,0,0.02,0.01,0.04,0.02c0.07,0.03,0.14,0.06,0.2,0.09l4.41,2.12
						c-0.01-0.01-0.03-0.01-0.04-0.02c-0.03-0.01-0.07-0.03-0.1-0.04c-0.05-0.02-0.1-0.04-0.14-0.06c-0.03-0.01-0.06-0.02-0.08-0.03
						c-0.03-0.01-0.07-0.02-0.11-0.03c-0.03-0.01-0.06-0.02-0.09-0.03c-0.05-0.02-0.11-0.03-0.16-0.04
						c-0.03-0.01-0.05-0.01-0.08-0.02c-0.03-0.01-0.05-0.01-0.07-0.02c-0.04-0.01-0.08-0.01-0.11-0.02c-0.01,0-0.02,0-0.03-0.01
						c-0.02,0-0.05-0.01-0.07-0.01c-0.04-0.01-0.08-0.01-0.12-0.02c-0.25-0.03-0.49-0.05-0.74-0.04c-0.57,0.01-1.18,0.11-1.81,0.31
						c-0.02,0.01-0.05,0.01-0.07,0.02c-0.04,0.01-0.09,0.03-0.13,0.04c-0.2,0.07-0.4,0.14-0.61,0.23l-4.46-2.15
						c0.29-0.12,0.58-0.22,0.86-0.31c0.05-0.02,0.11-0.03,0.16-0.05c0.06-0.02,0.12-0.03,0.17-0.04c0.07-0.02,0.12-0.03,0.17-0.04
						c0.22-0.05,0.41-0.08,0.61-0.11c0.01,0,0.03,0,0.04-0.01c0.03,0,0.06-0.01,0.09-0.01c0.03,0,0.05-0.01,0.08-0.01
						c0.03,0,0.05,0,0.08-0.01c0.03,0,0.06,0,0.08-0.01c0.03,0,0.05,0,0.08,0c0.03,0,0.06,0,0.09,0c0.02,0,0.05,0,0.07,0
						c0.02,0,0.04,0,0.07,0c0.08,0,0.16,0,0.25,0c0.01,0,0.02,0,0.03,0c0.08,0,0.16,0.01,0.23,0.01c0.01,0,0.02,0,0.02,0
						c0.08,0.01,0.16,0.02,0.23,0.03c0.01,0,0.03,0,0.04,0.01c0.08,0.01,0.15,0.02,0.22,0.04c0.01,0,0.03,0.01,0.04,0.01
						c0.07,0.02,0.14,0.03,0.21,0.05c0.09,0.02,0.16,0.05,0.23,0.07c0.01,0,0.03,0.01,0.04,0.01
						C334.3,398.99,334.37,399.02,334.43,399.05z"/>
				</g>
				<g>
					<path class="st6" d="M334.14,401.64c-0.03,0.01-0.06,0.03-0.08,0.04c-0.11,0.05-0.22,0.11-0.33,0.17l-4.48-2.15
						c0.13-0.07,0.26-0.13,0.39-0.19c0.01,0,0.01-0.01,0.02-0.01c0.01,0,0.02-0.01,0.03-0.01c0.03-0.01,0.06-0.03,0.08-0.04
						c0.09-0.04,0.18-0.08,0.27-0.12l4.46,2.15c-0.09,0.04-0.17,0.07-0.26,0.11c-0.02,0.01-0.04,0.02-0.05,0.02
						c0,0-0.01,0-0.01,0.01C334.16,401.63,334.15,401.64,334.14,401.64z"/>
				</g>
				<g class="st0">
					<defs>
						<path id="SVGID_61_" class="st0" d="M341.55,409.94l0.05,3.14c0.09,4.18-3.26,9.38-7.42,11.56l-0.05-3.14
							C338.29,419.32,341.64,414.11,341.55,409.94z"/>
					</defs>
					<clipPath id="SVGID_62_">
						<use xlink:href="#SVGID_61_"  style="overflow:visible;"/>
					</clipPath>
					<g class="st48">
						<path class="st18" d="M341.55,409.94l0.05,3.14c0,0.04,0,0.08,0,0.11l-0.05-3.14C341.55,410.01,341.55,409.98,341.55,409.94"
							/>
						<path class="st49" d="M341.55,410.05l0.05,3.14c0,0.2,0,0.39-0.02,0.59l-0.05-3.14C341.55,410.44,341.55,410.25,341.55,410.05
							"/>
						<path class="st50" d="M341.53,410.64l0.05,3.14c-0.01,0.2-0.03,0.4-0.06,0.61l-0.05-3.14
							C341.5,411.05,341.52,410.84,341.53,410.64"/>
						<path class="st51" d="M341.47,411.25l0.05,3.14c-0.03,0.21-0.06,0.42-0.11,0.63l-0.05-3.14
							C341.41,411.67,341.44,411.46,341.47,411.25"/>
						<path class="st52" d="M341.36,411.88l0.05,3.14c-0.04,0.22-0.1,0.44-0.16,0.67l-0.05-3.14
							C341.27,412.33,341.32,412.1,341.36,411.88"/>
						<path class="st53" d="M341.21,412.55l0.05,3.14c-0.06,0.23-0.13,0.47-0.21,0.7l-0.05-3.14
							C341.07,413.02,341.14,412.78,341.21,412.55"/>
						<path class="st47" d="M341,413.25l0.05,3.14c-0.08,0.25-0.17,0.49-0.27,0.74l-0.05-3.14
							C340.82,413.74,340.91,413.5,341,413.25"/>
						<path class="st54" d="M340.72,413.99l0.05,3.14c-0.1,0.26-0.22,0.52-0.34,0.78l-0.05-3.14
							C340.5,414.51,340.62,414.25,340.72,413.99"/>
						<path class="st55" d="M340.38,414.77l0.05,3.14c-0.13,0.27-0.27,0.54-0.42,0.81l-0.05-3.14
							C340.11,415.31,340.25,415.04,340.38,414.77"/>
						<path class="st56" d="M339.96,415.58l0.05,3.14c-0.16,0.28-0.32,0.56-0.5,0.84l-0.05-3.14
							C339.64,416.14,339.81,415.86,339.96,415.58"/>
						<path class="st57" d="M339.47,416.41l0.05,3.14c-0.19,0.29-0.38,0.58-0.59,0.86l-0.05-3.14
							C339.09,416.99,339.28,416.7,339.47,416.41"/>
						<path class="st58" d="M338.88,417.27l0.05,3.14c-0.22,0.3-0.45,0.59-0.68,0.87l-0.05-3.14
							C338.43,417.86,338.66,417.57,338.88,417.27"/>
						<path class="st59" d="M338.2,418.14l0.05,3.14c-0.26,0.3-0.52,0.6-0.8,0.88l-0.05-3.14
							C337.68,418.74,337.94,418.44,338.2,418.14"/>
						<path class="st60" d="M337.4,419.02l0.05,3.14c-0.31,0.31-0.62,0.61-0.95,0.89l-0.05-3.14
							C336.78,419.63,337.09,419.33,337.4,419.02"/>
						<path class="st61" d="M336.45,419.91l0.05,3.14c-0.42,0.36-0.85,0.69-1.3,0.98l-0.05-3.14
							C335.6,420.59,336.03,420.26,336.45,419.91"/>
						<path class="st62" d="M335.15,420.89l0.05,3.14c-0.34,0.22-0.68,0.43-1.03,0.61l-0.05-3.14
							C334.47,421.31,334.82,421.11,335.15,420.89"/>
					</g>
				</g>
				<g>
					<polygon class="st9" points="329.24,399.7 333.72,401.85 254.98,442.95 250.51,440.8 					"/>
				</g>
				<g>
					<path class="st6" d="M250.06,441.05c0.15-0.09,0.3-0.17,0.45-0.25l4.48,2.15c-0.23,0.12-0.45,0.24-0.67,0.38l-4.47-2.15
						C249.92,441.13,249.99,441.09,250.06,441.05z"/>
				</g>
				<g>
					<path class="st7" d="M254.31,443.33c-0.03,0.02-0.07,0.04-0.1,0.06c-0.07,0.04-0.12,0.08-0.18,0.12c0,0-0.01,0.01-0.01,0.01
						c-0.07,0.04-0.13,0.08-0.19,0.12c-0.11,0.07-0.21,0.15-0.31,0.22c-0.06,0.05-0.13,0.09-0.19,0.14
						c-0.02,0.02-0.05,0.03-0.07,0.05c-0.05,0.04-0.11,0.08-0.16,0.12l-4.47-2.15c0.08-0.06,0.16-0.12,0.24-0.18
						c0.02-0.01,0.04-0.03,0.05-0.04c0.08-0.06,0.15-0.11,0.23-0.17c0.02-0.01,0.02-0.02,0.03-0.02c0.02-0.02,0.04-0.03,0.07-0.05
						c0.14-0.09,0.27-0.18,0.41-0.27c0.02-0.01,0.03-0.02,0.05-0.03c0.01-0.01,0.02-0.01,0.03-0.02c0.03-0.02,0.07-0.04,0.1-0.06
						L254.31,443.33z"/>
				</g>
				<g>
					<path class="st9" d="M253.1,444.17c-0.4,0.31-0.78,0.65-1.14,1l-4.47-2.15c0.04-0.04,0.08-0.08,0.12-0.11
						c0.08-0.07,0.16-0.15,0.23-0.22c0.01-0.01,0.02-0.02,0.03-0.02c0.08-0.07,0.16-0.14,0.24-0.21c0,0,0.01-0.01,0.01-0.01
						c0.07-0.06,0.15-0.12,0.22-0.19c0.02-0.01,0.03-0.03,0.05-0.04c0.08-0.06,0.16-0.13,0.24-0.19L253.1,444.17z"/>
				</g>
				<g>
					<path class="st10" d="M247.07,443.45c0.14-0.15,0.28-0.29,0.43-0.43l4.47,2.15c-0.12,0.11-0.23,0.23-0.34,0.34
						c-0.06,0.06-0.12,0.13-0.18,0.19c-0.03,0.03-0.05,0.06-0.08,0.08c-0.2,0.22-0.39,0.44-0.57,0.66l-4.47-2.15
						c0.06-0.07,0.11-0.14,0.17-0.2c0.01-0.02,0.03-0.03,0.04-0.05c0.04-0.05,0.09-0.1,0.13-0.15c0.02-0.02,0.03-0.04,0.05-0.06
						c0.04-0.05,0.09-0.1,0.13-0.15c0.01-0.02,0.03-0.03,0.05-0.05c0.05-0.06,0.1-0.11,0.16-0.17
						C247.05,443.47,247.06,443.46,247.07,443.45z"/>
				</g>
				<g>
					<path class="st11" d="M246.31,444.3l4.47,2.15c-0.06,0.08-0.13,0.16-0.19,0.23c-0.01,0.02-0.02,0.03-0.04,0.05
						c-0.05,0.06-0.1,0.13-0.15,0.19c-0.01,0.02-0.02,0.03-0.04,0.05c-0.12,0.16-0.24,0.32-0.35,0.48
						c-0.01,0.02-0.02,0.03-0.03,0.05c-0.05,0.07-0.1,0.14-0.15,0.21c-0.01,0.01-0.01,0.02-0.02,0.03c-0.11,0.17-0.22,0.33-0.32,0.5
						c-0.01,0.02-0.02,0.03-0.03,0.05c-0.05,0.08-0.1,0.16-0.14,0.24l-4.47-2.14c0.05-0.09,0.1-0.17,0.15-0.25
						c0.01-0.01,0.02-0.03,0.03-0.04c0.05-0.08,0.1-0.16,0.15-0.24c0.06-0.09,0.11-0.18,0.17-0.26c0.01-0.01,0.01-0.02,0.02-0.03
						c0.05-0.07,0.1-0.14,0.15-0.22c0.01-0.02,0.02-0.03,0.03-0.05c0.11-0.16,0.23-0.32,0.35-0.48c0.01-0.02,0.03-0.03,0.04-0.05
						c0.05-0.06,0.1-0.13,0.14-0.19c0.01-0.02,0.03-0.04,0.04-0.05C246.19,444.46,246.25,444.38,246.31,444.3z"/>
				</g>
				<g>
					<path class="st12" d="M244.86,446.4l4.47,2.15c-0.05,0.09-0.1,0.18-0.15,0.26c-0.05,0.09-0.09,0.17-0.14,0.25
						c-0.01,0.01-0.01,0.02-0.02,0.04c-0.04,0.08-0.09,0.17-0.13,0.25c-0.09,0.18-0.18,0.36-0.26,0.53c0,0.01-0.01,0.02-0.01,0.02
						c-0.12,0.27-0.23,0.54-0.34,0.81c0,0.01-0.01,0.02-0.01,0.02c-0.02,0.07-0.05,0.12-0.07,0.18c-0.01,0.02-0.01,0.03-0.02,0.05
						c-0.02,0.06-0.04,0.12-0.06,0.17c-0.01,0.02-0.01,0.03-0.01,0.04c-0.02,0.06-0.04,0.12-0.06,0.19c0,0.01-0.01,0.02-0.01,0.02
						c-0.03,0.11-0.07,0.22-0.1,0.32c-0.03,0.12-0.06,0.22-0.09,0.33l-4.47-2.15c0.04-0.15,0.08-0.29,0.12-0.44
						c0.02-0.07,0.04-0.12,0.05-0.17c0.04-0.13,0.08-0.25,0.12-0.37c0.04-0.12,0.08-0.23,0.13-0.35c0-0.01,0.01-0.02,0.01-0.03
						c0.04-0.11,0.09-0.22,0.13-0.34c0-0.01,0.01-0.02,0.01-0.03c0.05-0.12,0.1-0.23,0.15-0.34c0.05-0.12,0.11-0.24,0.17-0.36
						c0.06-0.11,0.11-0.23,0.17-0.34c0.01-0.01,0.01-0.02,0.02-0.03c0.06-0.11,0.12-0.22,0.18-0.33c0.01-0.01,0.01-0.02,0.02-0.03
						C244.73,446.62,244.79,446.51,244.86,446.4z"/>
				</g>
				<g class="st0">
					<defs>
						<path id="SVGID_63_" class="st0" d="M243.14,455.49l-0.05-3.14c0,0,0,0.01,0,0.01l0.05,3.14
							C243.14,455.5,243.14,455.5,243.14,455.49z"/>
					</defs>
					<clipPath id="SVGID_64_">
						<use xlink:href="#SVGID_63_"  style="overflow:visible;"/>
					</clipPath>
					<g class="st63">
						<path class="st64" d="M243.08,452.36l0.05,3.14c0,0,0-0.01,0-0.01l-0.05-3.14C243.08,452.36,243.08,452.36,243.08,452.36"/>
					</g>
				</g>
				<g>
					<path class="st11" d="M243.39,449.89l4.46,2.15c-0.02,0.09-0.04,0.18-0.06,0.27c-0.02,0.08-0.04,0.16-0.05,0.25
						c0,0.02-0.01,0.03-0.01,0.05c-0.01,0.07-0.03,0.14-0.04,0.21c0,0.01-0.01,0.03-0.01,0.04c-0.03,0.17-0.05,0.33-0.07,0.5
						c0,0.01,0,0.03-0.01,0.04c-0.01,0.07-0.01,0.14-0.02,0.2c0,0.02,0,0.03,0,0.05c-0.01,0.08-0.01,0.15-0.02,0.23
						c0,0,0,0.01,0,0.01c0,0.08-0.01,0.17-0.01,0.25l-4.47-2.15c0-0.08,0.01-0.17,0.01-0.25c0-0.01,0-0.02,0-0.03
						c0-0.06,0.01-0.12,0.01-0.17c0-0.01,0-0.03,0-0.04c0-0.04,0.01-0.07,0.01-0.11c0-0.01,0-0.03,0-0.04c0,0,0-0.01,0-0.01
						c0.03-0.25,0.06-0.5,0.11-0.76c0-0.02,0.01-0.03,0.01-0.05c0.01-0.05,0.02-0.1,0.03-0.16
						C243.31,450.21,243.35,450.05,243.39,449.89z"/>
				</g>
				<g>
					<polygon class="st9" points="247.55,454.52 247.61,457.66 243.14,455.51 243.08,452.36 					"/>
				</g>
				<g>
					<path class="st10" d="M247.55,454.19c0,0.05,0,0.09,0,0.14c0,0.06,0,0.12,0,0.19l-4.47-2.15c0-0.11,0-0.21,0-0.32
						c0-0.02,0-0.04,0-0.05l4.47,2.15C247.55,454.16,247.55,454.17,247.55,454.19z"/>
				</g>
				<g class="st0">
					<defs>
						<path id="SVGID_65_" class="st0" d="M243.19,457.03l0.05,3.14c0-0.08-0.01-0.15-0.01-0.23l-0.05-3.14
							C243.18,456.88,243.18,456.95,243.19,457.03z"/>
					</defs>
					<clipPath id="SVGID_66_">
						<use xlink:href="#SVGID_65_"  style="overflow:visible;"/>
					</clipPath>
					<g class="st65">
						<path class="st64" d="M243.19,457.03l0.05,3.14c0-0.08-0.01-0.15-0.01-0.23l-0.05-3.14
							C243.18,456.88,243.18,456.95,243.19,457.03"/>
					</g>
				</g>
				<g>
					<polygon class="st3" points="243.18,456.8 243.23,459.94 243.14,455.51 243.08,452.36 					"/>
				</g>
				<g>
					<polygon class="st15" points="247.65,458.95 247.7,462.09 247.61,457.66 247.55,454.52 					"/>
				</g>
				<g>
					<polygon class="st12" points="247.65,458.95 247.7,462.09 243.23,459.94 243.18,456.8 					"/>
				</g>
				<g class="st0">
					<defs>
						<path id="SVGID_67_" class="st0" d="M243.19,457.08l0.05,3.14c0-0.02,0-0.04,0-0.06l-0.05-3.14
							C243.19,457.05,243.19,457.07,243.19,457.08z"/>
					</defs>
					<clipPath id="SVGID_68_">
						<use xlink:href="#SVGID_67_"  style="overflow:visible;"/>
					</clipPath>
					<g class="st66">
						<path class="st64" d="M243.19,457.08l0.05,3.14c0-0.02,0-0.04,0-0.06l-0.05-3.14C243.19,457.05,243.19,457.07,243.19,457.08"
							/>
					</g>
				</g>
				<g class="st0">
					<defs>
						<path id="SVGID_69_" class="st0" d="M243.2,457.27l0.05,3.14c-0.01-0.06-0.01-0.12-0.01-0.18l-0.05-3.14
							C243.19,457.15,243.2,457.21,243.2,457.27z"/>
					</defs>
					<clipPath id="SVGID_70_">
						<use xlink:href="#SVGID_69_"  style="overflow:visible;"/>
					</clipPath>
					<g class="st67">
						<path class="st64" d="M243.2,457.27l0.05,3.14c-0.01-0.06-0.01-0.12-0.01-0.18l-0.05-3.14
							C243.19,457.15,243.2,457.21,243.2,457.27"/>
					</g>
				</g>
				<g class="st0">
					<defs>
						<path id="SVGID_71_" class="st0" d="M243.21,457.31l0.05,3.14c0-0.01,0-0.03,0-0.04l-0.05-3.14
							C243.21,457.28,243.21,457.3,243.21,457.31z"/>
					</defs>
					<clipPath id="SVGID_72_">
						<use xlink:href="#SVGID_71_"  style="overflow:visible;"/>
					</clipPath>
					<g class="st68">
						<path class="st64" d="M243.21,457.31l0.05,3.14c0-0.01,0-0.03,0-0.04l-0.05-3.14C243.21,457.28,243.21,457.3,243.21,457.31"/>
					</g>
				</g>
				<g class="st0">
					<defs>
						<path id="SVGID_73_" class="st0" d="M243.26,457.77l0.05,3.14c-0.02-0.15-0.04-0.3-0.06-0.45l-0.05-3.14
							C243.22,457.47,243.24,457.62,243.26,457.77z"/>
					</defs>
					<clipPath id="SVGID_74_">
						<use xlink:href="#SVGID_73_"  style="overflow:visible;"/>
					</clipPath>
					<g class="st69">
						<path class="st64" d="M243.26,457.77l0.05,3.14c-0.02-0.15-0.04-0.3-0.06-0.45l-0.05-3.14
							C243.22,457.47,243.24,457.62,243.26,457.77"/>
					</g>
				</g>
				<g class="st0">
					<defs>
						<path id="SVGID_75_" class="st0" d="M247.8,460.26l0.05,3.14c-0.15-1.04-0.15-1.17-0.15-1.31l-0.05-3.14
							C247.65,459.09,247.66,459.22,247.8,460.26z"/>
					</defs>
					<clipPath id="SVGID_76_">
						<use xlink:href="#SVGID_75_"  style="overflow:visible;"/>
					</clipPath>
					<g class="st70">
						<path class="st21" d="M247.8,460.26l0.05,3.14c-0.15-1.04-0.15-1.17-0.15-1.31l-0.05-3.14
							C247.65,459.09,247.66,459.22,247.8,460.26"/>
					</g>
				</g>
				<g>
					<polygon class="st9" points="247.73,459.92 247.79,463.07 243.32,460.91 243.26,457.77 					"/>
				</g>
				<g class="st0">
					<defs>
						<path id="SVGID_77_" class="st0" d="M243.31,458l0.05,3.14c0-0.01,0-0.02,0-0.02c-0.01-0.07-0.03-0.14-0.04-0.21l-0.05-3.14
							c0.01,0.07,0.02,0.14,0.04,0.21C243.31,457.99,243.31,457.99,243.31,458z"/>
					</defs>
					<clipPath id="SVGID_78_">
						<use xlink:href="#SVGID_77_"  style="overflow:visible;"/>
					</clipPath>
					<g class="st71">
						<path class="st72" d="M243.31,458l0.05,3.14c0-0.01,0-0.02,0-0.02c-0.01-0.07-0.03-0.14-0.04-0.21l-0.05-3.14
							c0.01,0.07,0.02,0.14,0.04,0.21C243.31,457.99,243.31,457.99,243.31,458"/>
					</g>
				</g>
				<g class="st0">
					<defs>
						<path id="SVGID_79_" class="st0" d="M243.37,458.27l0.05,3.14c0-0.02-0.01-0.04-0.01-0.05c-0.02-0.07-0.03-0.14-0.05-0.21
							l-0.05-3.14c0.01,0.07,0.03,0.14,0.05,0.21C243.36,458.23,243.36,458.25,243.37,458.27z"/>
					</defs>
					<clipPath id="SVGID_80_">
						<use xlink:href="#SVGID_79_"  style="overflow:visible;"/>
					</clipPath>
					<g class="st73">
						<path class="st72" d="M243.37,458.27l0.05,3.14c0-0.02-0.01-0.04-0.01-0.05c-0.02-0.07-0.03-0.14-0.05-0.21l-0.05-3.14
							c0.01,0.07,0.03,0.14,0.05,0.21C243.36,458.23,243.36,458.25,243.37,458.27"/>
					</g>
				</g>
				<g class="st0">
					<defs>
						<path id="SVGID_81_" class="st0" d="M243.39,458.34l0.05,3.14c-0.01-0.02-0.01-0.05-0.02-0.08l-0.05-3.14
							C243.38,458.29,243.38,458.32,243.39,458.34z"/>
					</defs>
					<clipPath id="SVGID_82_">
						<use xlink:href="#SVGID_81_"  style="overflow:visible;"/>
					</clipPath>
					<g class="st74">
						<path class="st72" d="M243.39,458.34l0.05,3.14c-0.01-0.02-0.01-0.05-0.02-0.08l-0.05-3.14
							C243.38,458.29,243.38,458.32,243.39,458.34"/>
					</g>
				</g>
				<g class="st0">
					<defs>
						<path id="SVGID_83_" class="st0" d="M243.39,458.36l0.05,3.14c0,0,0-0.01,0-0.01l-0.05-3.14
							C243.39,458.35,243.39,458.35,243.39,458.36z"/>
					</defs>
					<clipPath id="SVGID_84_">
						<use xlink:href="#SVGID_83_"  style="overflow:visible;"/>
					</clipPath>
					<g class="st75">
						<path class="st72" d="M243.39,458.36l0.05,3.14c0,0,0-0.01,0-0.01l-0.05-3.14C243.39,458.35,243.39,458.35,243.39,458.36"/>
					</g>
				</g>
				<g class="st0">
					<defs>
						<path id="SVGID_85_" class="st0" d="M243.41,458.43l0.05,3.14c-0.01-0.02-0.01-0.05-0.02-0.07l-0.05-3.14
							C243.4,458.38,243.41,458.4,243.41,458.43z"/>
					</defs>
					<clipPath id="SVGID_86_">
						<use xlink:href="#SVGID_85_"  style="overflow:visible;"/>
					</clipPath>
					<g class="st76">
						<path class="st72" d="M243.41,458.43l0.05,3.14c-0.01-0.02-0.01-0.05-0.02-0.07l-0.05-3.14
							C243.4,458.38,243.41,458.4,243.41,458.43"/>
					</g>
				</g>
				<g class="st0">
					<defs>
						<path id="SVGID_87_" class="st0" d="M243.43,458.47l0.05,3.14c0-0.02-0.01-0.03-0.01-0.05l-0.05-3.14
							C243.42,458.44,243.42,458.46,243.43,458.47z"/>
					</defs>
					<clipPath id="SVGID_88_">
						<use xlink:href="#SVGID_87_"  style="overflow:visible;"/>
					</clipPath>
					<g class="st77">
						<path class="st72" d="M243.43,458.47l0.05,3.14c0-0.02-0.01-0.03-0.01-0.05l-0.05-3.14
							C243.42,458.44,243.42,458.46,243.43,458.47"/>
					</g>
				</g>
				<g class="st0">
					<defs>
						<path id="SVGID_89_" class="st0" d="M243.55,458.82l0.05,3.14c-0.05-0.11-0.09-0.23-0.12-0.34l-0.05-3.14
							C243.46,458.59,243.5,458.71,243.55,458.82z"/>
					</defs>
					<clipPath id="SVGID_90_">
						<use xlink:href="#SVGID_89_"  style="overflow:visible;"/>
					</clipPath>
					<g class="st78">
						<path class="st72" d="M243.55,458.82l0.05,3.14c-0.05-0.11-0.09-0.23-0.12-0.34l-0.05-3.14
							C243.46,458.59,243.5,458.71,243.55,458.82"/>
					</g>
				</g>
				<g>
					<polygon class="st13" points="243.08,452.36 247.55,454.52 247.65,458.95 243.18,456.8 					"/>
				</g>
				<g class="st0">
					<defs>
						<path id="SVGID_91_" class="st0" d="M248.92,462.41l0.05,3.14c-0.59-0.65-0.94-1.33-1.12-2.15l-0.05-3.14
							C247.99,461.08,248.33,461.76,248.92,462.41z"/>
					</defs>
					<clipPath id="SVGID_92_">
						<use xlink:href="#SVGID_91_"  style="overflow:visible;"/>
					</clipPath>
					<g class="st79">
						<path class="st21" d="M248.92,462.41l0.05,3.14c-0.59-0.65-0.94-1.33-1.12-2.15l-0.05-3.14
							C247.99,461.08,248.33,461.76,248.92,462.41"/>
					</g>
				</g>
				<g>
					<polygon class="st7" points="248.01,460.98 248.07,464.12 243.6,461.96 243.55,458.82 					"/>
				</g>
				<g class="st0">
					<defs>
						<path id="SVGID_93_" class="st0" d="M243.75,459.29l0.05,3.14c-0.01-0.02-0.01-0.02-0.01-0.03c-0.01-0.03-0.03-0.06-0.04-0.08
							c-0.05-0.12-0.1-0.24-0.15-0.36l-0.05-3.14c0.05,0.13,0.1,0.25,0.15,0.36c0.01,0.03,0.03,0.06,0.04,0.08
							C243.74,459.27,243.75,459.27,243.75,459.29z"/>
					</defs>
					<clipPath id="SVGID_94_">
						<use xlink:href="#SVGID_93_"  style="overflow:visible;"/>
					</clipPath>
					<g class="st80">
						<path class="st81" d="M243.75,459.29l0.05,3.14c-0.01-0.02-0.01-0.02-0.01-0.03c-0.01-0.03-0.03-0.06-0.04-0.08
							c-0.05-0.12-0.1-0.24-0.15-0.36l-0.05-3.14c0.05,0.13,0.1,0.25,0.15,0.36c0.01,0.03,0.03,0.06,0.04,0.08
							C243.74,459.27,243.75,459.27,243.75,459.29"/>
					</g>
				</g>
				<g class="st0">
					<defs>
						<path id="SVGID_95_" class="st0" d="M244.02,459.74l0.05,3.14c-0.02-0.03-0.05-0.07-0.07-0.1c-0.02-0.04-0.04-0.06-0.06-0.09
							c-0.05-0.08-0.1-0.16-0.14-0.25l-0.05-3.14c0.04,0.08,0.09,0.17,0.14,0.25c0.02,0.03,0.04,0.06,0.06,0.09
							C243.98,459.67,244,459.7,244.02,459.74z"/>
					</defs>
					<clipPath id="SVGID_96_">
						<use xlink:href="#SVGID_95_"  style="overflow:visible;"/>
					</clipPath>
					<g class="st82">
						<path class="st81" d="M244.02,459.74l0.05,3.14c-0.02-0.03-0.05-0.07-0.07-0.1c-0.02-0.04-0.04-0.06-0.06-0.09
							c-0.05-0.08-0.1-0.16-0.14-0.25l-0.05-3.14c0.04,0.08,0.09,0.17,0.14,0.25c0.02,0.03,0.04,0.06,0.06,0.09
							C243.98,459.67,244,459.7,244.02,459.74"/>
					</g>
				</g>
				<g>
					<path class="st10" d="M243.19,457.08c0-0.02,0-0.04,0-0.06c0-0.08-0.01-0.15-0.01-0.23l4.47,2.15c0,0.11,0.01,0.22,0.01,0.33
						c0,0.02,0,0.04,0,0.07c0,0,0,0.01,0,0.01c0,0.01,0,0.02,0,0.03c0,0.02,0,0.05,0.01,0.07c0,0.02,0,0.03,0,0.05
						c0,0.01,0,0.02,0,0.03c0,0.02,0,0.04,0.01,0.05c0.01,0.07,0.02,0.13,0.03,0.2c0,0.03,0.01,0.06,0.01,0.08
						c0,0.02,0.01,0.03,0.01,0.04l-4.47-2.16c-0.02-0.15-0.04-0.3-0.06-0.45c0-0.01,0-0.03,0-0.04
						C243.2,457.21,243.19,457.15,243.19,457.08z"/>
				</g>
				<g>
					<polygon class="st6" points="248.49,461.89 248.54,465.03 244.08,462.88 244.02,459.74 					"/>
				</g>
				<g class="st0">
					<defs>
						<path id="SVGID_97_" class="st0" d="M244.6,460.4l0.05,3.14c-0.01-0.01-0.01-0.01-0.02-0.02c-0.2-0.19-0.39-0.4-0.56-0.64
							l-0.05-3.14c0.16,0.24,0.35,0.45,0.56,0.64C244.59,460.39,244.59,460.39,244.6,460.4z"/>
					</defs>
					<clipPath id="SVGID_98_">
						<use xlink:href="#SVGID_97_"  style="overflow:visible;"/>
					</clipPath>
					<g class="st83">
						<path class="st72" d="M244.6,460.4l0.05,3.14c-0.01-0.01-0.01-0.01-0.02-0.02c-0.02-0.02-0.05-0.04-0.07-0.07l-0.05-3.14
							c0.02,0.02,0.05,0.04,0.07,0.07C244.59,460.39,244.59,460.39,244.6,460.4"/>
						<path class="st81" d="M244.51,460.31l0.05,3.14c-0.18-0.17-0.34-0.36-0.49-0.58l-0.05-3.14
							C244.17,459.95,244.33,460.14,244.51,460.31"/>
					</g>
				</g>
				<g class="st0">
					<defs>
						<path id="SVGID_99_" class="st0" d="M244.82,460.58l0.05,3.14c-0.06-0.04-0.11-0.09-0.16-0.13c-0.01-0.01-0.02-0.02-0.03-0.02
							c-0.01-0.01-0.02-0.02-0.03-0.03l-0.05-3.14c0.01,0.01,0.02,0.02,0.03,0.03c0.01,0.01,0.02,0.02,0.03,0.02
							C244.71,460.49,244.76,460.54,244.82,460.58z"/>
					</defs>
					<clipPath id="SVGID_100_">
						<use xlink:href="#SVGID_99_"  style="overflow:visible;"/>
					</clipPath>
					<g class="st84">
						<path class="st64" d="M244.82,460.58l0.05,3.14c-0.02-0.01-0.04-0.03-0.06-0.04l-0.05-3.14
							C244.78,460.55,244.8,460.57,244.82,460.58"/>
						<path class="st72" d="M244.76,460.54l0.05,3.14c-0.04-0.03-0.07-0.06-0.11-0.09c-0.01-0.01-0.02-0.02-0.03-0.02
							c-0.01-0.01-0.02-0.02-0.03-0.03l-0.05-3.14c0.01,0.01,0.02,0.02,0.03,0.03c0.01,0.01,0.02,0.02,0.03,0.02
							C244.69,460.48,244.73,460.51,244.76,460.54"/>
					</g>
				</g>
				<g class="st0">
					<defs>
						<path id="SVGID_101_" class="st0" d="M255.39,462.59l0.05,3.14c-1.22,0.63-2.37,0.94-3.4,0.96c-0.81,0.01-1.55-0.15-2.17-0.49
							c-0.14-0.07-0.27-0.16-0.4-0.25c-0.1-0.07-0.2-0.15-0.29-0.23c-0.07-0.06-0.13-0.12-0.2-0.19l-0.05-3.14
							c0.06,0.06,0.13,0.13,0.2,0.19c0.09,0.08,0.19,0.16,0.29,0.23c0.13,0.09,0.26,0.17,0.4,0.25c0.62,0.33,1.36,0.5,2.17,0.49
							C253.01,463.54,254.17,463.23,255.39,462.59z"/>
					</defs>
					<clipPath id="SVGID_102_">
						<use xlink:href="#SVGID_101_"  style="overflow:visible;"/>
					</clipPath>
					<g class="st85">
						<path class="st62" d="M255.39,462.59l0.05,3.14c-0.56,0.29-1.1,0.51-1.63,0.67l-0.05-3.14
							C254.28,463.11,254.83,462.89,255.39,462.59"/>
						<path class="st61" d="M253.76,463.27l0.05,3.14c-0.27,0.08-0.53,0.14-0.78,0.19l-0.05-3.14
							C253.23,463.41,253.49,463.35,253.76,463.27"/>
						<path class="st60" d="M252.97,463.46l0.05,3.14c-0.17,0.03-0.33,0.05-0.49,0.07l-0.05-3.14
							C252.64,463.51,252.81,463.49,252.97,463.46"/>
						<path class="st59" d="M252.48,463.53l0.05,3.14c-0.13,0.01-0.25,0.02-0.37,0.03l-0.05-3.14
							C252.23,463.55,252.36,463.54,252.48,463.53"/>
						<path class="st58" d="M252.11,463.55l0.05,3.14c-0.04,0-0.08,0-0.13,0c-0.06,0-0.12,0-0.19,0l-0.05-3.14c0.06,0,0.12,0,0.19,0
							C252.03,463.56,252.07,463.56,252.11,463.55"/>
						<path class="st57" d="M251.8,463.56l0.05,3.14c-0.09,0-0.18-0.01-0.27-0.01l-0.05-3.14
							C251.62,463.55,251.71,463.56,251.8,463.56"/>
						<path class="st56" d="M251.53,463.55l0.05,3.14c-0.08-0.01-0.16-0.01-0.24-0.02l-0.05-3.14
							C251.36,463.53,251.44,463.54,251.53,463.55"/>
						<path class="st55" d="M251.28,463.52l0.05,3.14c-0.08-0.01-0.15-0.02-0.22-0.03l-0.05-3.14
							C251.13,463.5,251.21,463.51,251.28,463.52"/>
						<path class="st54" d="M251.06,463.49l0.05,3.14c-0.07-0.01-0.14-0.03-0.21-0.04l-0.05-3.14
							C250.92,463.46,250.99,463.48,251.06,463.49"/>
						<path class="st47" d="M250.85,463.45l0.05,3.14c-0.07-0.01-0.13-0.03-0.2-0.05l-0.05-3.14
							C250.71,463.42,250.78,463.43,250.85,463.45"/>
						<path class="st53" d="M250.65,463.4l0.05,3.14c-0.07-0.02-0.13-0.04-0.19-0.06l-0.05-3.14
							C250.52,463.36,250.58,463.38,250.65,463.4"/>
						<path class="st52" d="M250.45,463.34l0.05,3.14c-0.06-0.02-0.13-0.04-0.19-0.07l-0.05-3.14
							C250.32,463.3,250.39,463.32,250.45,463.34"/>
						<path class="st51" d="M250.26,463.27l0.05,3.14c-0.06-0.02-0.13-0.05-0.19-0.08l-0.05-3.14
							C250.14,463.22,250.2,463.25,250.26,463.27"/>
						<path class="st50" d="M250.07,463.2l0.05,3.14c-0.06-0.03-0.13-0.06-0.19-0.09l-0.05-3.14
							C249.95,463.14,250.01,463.17,250.07,463.2"/>
						<path class="st49" d="M249.88,463.11l0.05,3.14c-0.02-0.01-0.05-0.02-0.07-0.04c-0.04-0.02-0.08-0.05-0.12-0.07l-0.05-3.14
							c0.04,0.02,0.08,0.05,0.12,0.07C249.84,463.08,249.86,463.1,249.88,463.11"/>
						<path class="st18" d="M249.69,463l0.05,3.14c-0.07-0.04-0.14-0.08-0.21-0.13l-0.05-3.14
							C249.55,462.92,249.62,462.96,249.69,463"/>
						<path class="st86" d="M249.48,462.87l0.05,3.14c-0.02-0.02-0.05-0.03-0.07-0.05c-0.05-0.04-0.11-0.08-0.16-0.12l-0.05-3.14
							c0.05,0.04,0.11,0.08,0.16,0.12C249.43,462.84,249.46,462.85,249.48,462.87"/>
						<path class="st24" d="M249.25,462.7l0.05,3.14c-0.04-0.03-0.08-0.07-0.13-0.11c-0.05-0.04-0.1-0.09-0.14-0.13l-0.05-3.14
							c0.05,0.05,0.09,0.09,0.14,0.13C249.16,462.63,249.2,462.66,249.25,462.7"/>
						<path class="st21" d="M248.98,462.46l0.05,3.14c-0.02-0.02-0.04-0.04-0.05-0.05l-0.05-3.14
							C248.94,462.42,248.96,462.44,248.98,462.46"/>
					</g>
				</g>
				<g>
					<polygon class="st5" points="249.28,462.72 249.33,465.87 244.88,463.73 244.82,460.58 					"/>
				</g>
				<g class="st0">
					<defs>
						<path id="SVGID_103_" class="st0" d="M245.15,460.81l0.05,3.14c0,0-0.01-0.01-0.01-0.01c-0.11-0.07-0.21-0.14-0.32-0.22
							l-0.05-3.14c0.1,0.08,0.21,0.15,0.32,0.22C245.14,460.8,245.15,460.81,245.15,460.81z"/>
					</defs>
					<clipPath id="SVGID_104_">
						<use xlink:href="#SVGID_103_"  style="overflow:visible;"/>
					</clipPath>
					<g class="st87">
						<path class="st72" d="M245.15,460.81l0.05,3.14c0,0-0.01-0.01-0.01-0.01c-0.04-0.03-0.09-0.06-0.13-0.09l-0.05-3.14
							c0.04,0.03,0.09,0.06,0.13,0.09C245.14,460.8,245.15,460.81,245.15,460.81"/>
						<path class="st81" d="M245,460.71l0.05,3.14c-0.06-0.04-0.12-0.09-0.18-0.13l-0.05-3.14
							C244.88,460.63,244.94,460.67,245,460.71"/>
					</g>
				</g>
				<g class="st0">
					<defs>
						<path id="SVGID_105_" class="st0" d="M245.49,460.99l0.05,3.14c-0.05-0.03-0.11-0.05-0.16-0.08
							c-0.01-0.01-0.02-0.01-0.03-0.02c-0.05-0.03-0.09-0.05-0.14-0.08l-0.05-3.14c0.05,0.03,0.09,0.05,0.14,0.08
							c0.01,0.01,0.02,0.01,0.03,0.02C245.38,460.94,245.43,460.96,245.49,460.99z"/>
					</defs>
					<clipPath id="SVGID_106_">
						<use xlink:href="#SVGID_105_"  style="overflow:visible;"/>
					</clipPath>
					<g class="st88">
						<path class="st2" d="M245.49,460.99l0.05,3.14c-0.02-0.01-0.05-0.02-0.07-0.04l-0.05-3.14
							C245.44,460.97,245.46,460.98,245.49,460.99"/>
						<path class="st64" d="M245.41,460.96l0.05,3.14c-0.03-0.02-0.06-0.03-0.09-0.05c-0.01-0.01-0.02-0.01-0.03-0.02
							c-0.03-0.02-0.06-0.03-0.09-0.05l-0.05-3.14c0.03,0.02,0.06,0.03,0.09,0.05c0.01,0.01,0.02,0.01,0.03,0.02
							C245.35,460.92,245.38,460.94,245.41,460.96"/>
						<path class="st72" d="M245.2,460.84l0.05,3.14c-0.02-0.01-0.04-0.02-0.05-0.03l-0.05-3.14
							C245.17,460.82,245.19,460.83,245.2,460.84"/>
					</g>
				</g>
				<g>
					<path class="st9" d="M247.83,460.39c0.05,0.21,0.11,0.41,0.18,0.59l-4.47-2.16c-0.05-0.11-0.09-0.23-0.12-0.34
						c0-0.02-0.01-0.03-0.01-0.05c-0.01-0.02-0.01-0.05-0.02-0.07c0,0,0-0.01,0-0.01c-0.01-0.02-0.01-0.05-0.02-0.08
						c0-0.02-0.01-0.04-0.01-0.05c-0.02-0.07-0.03-0.14-0.05-0.21c0-0.01,0-0.02,0-0.02c-0.01-0.07-0.03-0.14-0.04-0.21l4.47,2.15
						c0.01,0.04,0.01,0.07,0.02,0.11c0,0.02,0.01,0.03,0.01,0.05c0.01,0.03,0.01,0.06,0.02,0.08c0,0.02,0.01,0.04,0.01,0.06
						c0,0.01,0,0.01,0,0.02c0,0.01,0,0.02,0.01,0.03C247.81,460.3,247.82,460.34,247.83,460.39z"/>
				</g>
				<g>
					<path class="st7" d="M248.32,461.62c0.05,0.09,0.11,0.18,0.17,0.27l-4.47-2.15c-0.02-0.03-0.05-0.07-0.07-0.1
						c-0.02-0.04-0.04-0.06-0.06-0.09c-0.05-0.08-0.1-0.16-0.14-0.25c-0.01-0.02-0.01-0.02-0.01-0.03
						c-0.01-0.03-0.03-0.06-0.04-0.08c-0.05-0.12-0.1-0.24-0.15-0.36l4.47,2.16c0.04,0.11,0.09,0.22,0.14,0.32
						C248.21,461.41,248.26,461.52,248.32,461.62z"/>
				</g>
				<g>
					<polygon class="st89" points="334.13,421.49 334.18,424.64 255.44,465.74 255.39,462.59 					"/>
				</g>
				<g>
					<path class="st6" d="M249.28,462.72l-4.46-2.14c-0.06-0.04-0.11-0.09-0.16-0.13c-0.01-0.01-0.02-0.02-0.03-0.02
						c-0.01-0.01-0.02-0.02-0.03-0.03c-0.01-0.01-0.01-0.01-0.02-0.02c-0.2-0.19-0.39-0.4-0.56-0.64l4.47,2.15
						c0.06,0.09,0.13,0.17,0.2,0.26c0.03,0.04,0.06,0.07,0.09,0.11c0.01,0.01,0.02,0.02,0.02,0.03c0.01,0.01,0.02,0.02,0.03,0.04
						c0.02,0.02,0.03,0.03,0.05,0.05c0.01,0.01,0.03,0.03,0.04,0.04c0.01,0.01,0.02,0.02,0.03,0.02c0.04,0.04,0.08,0.08,0.13,0.12
						c0.01,0.01,0.03,0.03,0.04,0.04C249.17,462.64,249.22,462.68,249.28,462.72z"/>
				</g>
				<g>
					<path class="st5" d="M249.41,462.82c0.13,0.09,0.26,0.17,0.4,0.25l-4.33-2.08c-0.05-0.03-0.11-0.05-0.16-0.08
						c-0.01-0.01-0.02-0.01-0.03-0.02c-0.05-0.03-0.09-0.05-0.14-0.08c0,0-0.01-0.01-0.01-0.01c-0.11-0.07-0.21-0.14-0.32-0.22
						l4.46,2.14C249.32,462.76,249.37,462.79,249.41,462.82z"/>
				</g>
				<g>
					<polygon class="st4" points="249.81,463.07 249.87,466.21 245.54,464.13 245.49,460.99 					"/>
				</g>
			</g>
		</g>
	</g>
	<g>
		<g>
			<g class="st0">
				<g>
					<polygon class="st90" points="287.56,437.38 282.63,434.52 282.2,355.72 287.14,358.59 					"/>
				</g>
				<g>
					<polygon class="st90" points="287.14,358.59 282.2,355.72 296.81,337.57 301.74,340.43 					"/>
				</g>
				<g>
					<polygon class="st91" points="301.74,340.43 302.16,419.23 287.56,437.38 287.14,358.59 					"/>
				</g>
				<g>
					<polygon class="st72" points="291.72,339.53 286.79,336.67 296.81,337.57 301.74,340.43 					"/>
				</g>
				<g>
					<polygon class="st3" points="277.12,357.68 272.19,354.82 282.2,355.72 287.14,358.59 					"/>
				</g>
				<g>
					<polygon class="st18" points="291.72,339.53 301.74,340.43 287.14,358.59 277.12,357.68 					"/>
				</g>
				<g>
					<polygon class="st7" points="277.12,357.68 272.19,354.82 286.79,336.67 291.72,339.53 					"/>
				</g>
				<g>
					<polygon class="st52" points="277.12,357.68 287.14,358.59 287.56,437.38 277.54,436.48 					"/>
				</g>
				<g>
					<polygon class="st12" points="277.54,436.48 272.6,433.62 272.19,354.82 277.12,357.68 					"/>
				</g>
			</g>
		</g>
	</g>
	<g>
		<g>
			<g class="st0">
				<g class="st0">
					<defs>
						<path id="SVGID_107_" class="st0" d="M460.05,22.34l12.79,7.43c-1.4-0.81-3.34-0.71-5.46,0.52l-12.79-7.43
							C456.71,21.63,458.65,21.52,460.05,22.34z"/>
					</defs>
					<clipPath id="SVGID_108_">
						<use xlink:href="#SVGID_107_"  style="overflow:visible;"/>
					</clipPath>
					<g class="st92">
						<path class="st93" d="M467.38,30.29l-12.79-7.43c0.26-0.15,0.53-0.29,0.78-0.41l12.79,7.43
							C467.9,30,467.64,30.14,467.38,30.29"/>
						<path class="st94" d="M468.16,29.89l-12.79-7.43c1.82-0.83,3.45-0.83,4.68-0.11l12.79,7.43
							C471.61,29.06,469.98,29.05,468.16,29.89"/>
					</g>
				</g>
				<g class="st0">
					<defs>
						<path id="SVGID_109_" class="st0" d="M88.75,506.23l-12.79-7.43c-1.39-0.81-2.26-2.53-2.27-4.97l12.79,7.43
							C86.49,503.7,87.35,505.42,88.75,506.23z"/>
					</defs>
					<clipPath id="SVGID_110_">
						<use xlink:href="#SVGID_109_"  style="overflow:visible;"/>
					</clipPath>
					<g class="st95">
						<path class="st94" d="M88.75,506.23l-12.79-7.43c-0.24-0.14-0.47-0.31-0.68-0.5l12.79,7.43
							C88.28,505.92,88.5,506.09,88.75,506.23"/>
						<path class="st93" d="M88.07,505.72l-12.79-7.43c-0.3-0.28-0.56-0.61-0.78-1l12.79,7.43
							C87.51,505.11,87.77,505.45,88.07,505.72"/>
						<path class="st96" d="M87.29,504.73l-12.79-7.43c-0.19-0.33-0.34-0.69-0.47-1.08l12.79,7.43
							C86.94,504.04,87.1,504.4,87.29,504.73"/>
						<path class="st97" d="M86.82,503.64l-12.79-7.43c-0.12-0.38-0.21-0.8-0.27-1.25l12.79,7.43
							C86.61,502.85,86.7,503.26,86.82,503.64"/>
						<path class="st98" d="M86.55,502.4l-12.79-7.43c-0.05-0.36-0.07-0.74-0.07-1.14l12.79,7.43
							C86.48,501.66,86.5,502.04,86.55,502.4"/>
					</g>
				</g>
				<g>
					<polygon class="st99" points="86.48,501.26 73.69,493.82 73,252.08 85.79,259.51 					"/>
				</g>
				<g>
					<polygon class="st100" points="93.47,246.17 80.68,238.73 454.59,22.86 467.38,30.29 					"/>
				</g>
				<g>
					<path class="st101" d="M467.38,30.29c4.24-2.45,7.72-0.44,7.73,4.45l0.69,241.74c0.01,4.89-3.44,10.9-7.68,13.35L94.21,505.71
						c-4.24,2.45-7.72,0.44-7.73-4.45l-0.69-241.74c-0.01-4.89,3.44-10.9,7.68-13.35L467.38,30.29z"/>
				</g>
				<g class="st0">
					<defs>
						<path id="SVGID_111_" class="st0" d="M85.79,259.51L73,252.08c-0.01-4.89,3.44-10.9,7.68-13.35l12.79,7.43
							C89.23,248.61,85.78,254.62,85.79,259.51z"/>
					</defs>
					<clipPath id="SVGID_112_">
						<use xlink:href="#SVGID_111_"  style="overflow:visible;"/>
					</clipPath>
					<g class="st102">
						<path class="st98" d="M85.79,259.51L73,252.08c0-0.14,0-0.29,0.01-0.43l12.79,7.43C85.79,259.23,85.79,259.37,85.79,259.51"/>
						<path class="st103" d="M85.8,259.08l-12.79-7.43c0.03-0.8,0.15-1.63,0.35-2.46l12.79,7.43
							C85.95,257.45,85.83,258.28,85.8,259.08"/>
						<path class="st104" d="M86.15,256.62l-12.79-7.43c0.32-1.37,0.85-2.75,1.55-4.07l12.79,7.43
							C87,253.87,86.47,255.25,86.15,256.62"/>
						<path class="st103" d="M87.69,252.55l-12.79-7.43c0.44-0.84,0.95-1.65,1.51-2.41l12.79,7.43
							C88.64,250.9,88.13,251.71,87.69,252.55"/>
						<path class="st98" d="M89.2,250.14l-12.79-7.43c0.38-0.52,0.79-1.01,1.21-1.47l12.79,7.43
							C89.99,249.13,89.58,249.63,89.2,250.14"/>
						<path class="st97" d="M90.41,248.67l-12.79-7.43c0.37-0.4,0.76-0.78,1.16-1.13l12.79,7.43
							C91.17,247.89,90.78,248.27,90.41,248.67"/>
						<path class="st96" d="M91.57,247.54l-12.79-7.43c0.4-0.35,0.81-0.67,1.23-0.95l12.79,7.43
							C92.38,246.88,91.97,247.19,91.57,247.54"/>
						<path class="st93" d="M92.8,246.59L80,239.16c0.22-0.15,0.45-0.29,0.68-0.42l12.79,7.43C93.25,246.3,93.02,246.44,92.8,246.59
							"/>
					</g>
				</g>
			</g>
		</g>
	</g>
	<g>
		<g>
			<g class="st0">
				<g class="st0">
					<defs>
						<path id="SVGID_113_" class="st0" d="M451.97,61.24l12.79,7.43c-0.99-0.58-2.36-0.5-3.87,0.37l-12.79-7.43
							C449.61,60.74,450.98,60.66,451.97,61.24z"/>
					</defs>
					<clipPath id="SVGID_114_">
						<use xlink:href="#SVGID_113_"  style="overflow:visible;"/>
					</clipPath>
					<g class="st105">
						<path class="st106" d="M460.9,69.05l-12.79-7.43c0.19-0.11,0.37-0.2,0.56-0.29l12.79,7.43
							C461.27,68.84,461.08,68.94,460.9,69.05"/>
						<path class="st107" d="M461.45,68.76l-12.79-7.43c1.29-0.59,2.44-0.59,3.31-0.08l12.79,7.43
							C463.9,68.17,462.74,68.17,461.45,68.76"/>
					</g>
				</g>
				<g class="st0">
					<defs>
						<path id="SVGID_115_" class="st0" d="M107.47,286.1l-12.79-7.43c-0.98-0.57-1.59-1.77-1.59-3.48l12.79,7.43
							C105.89,284.33,106.5,285.53,107.47,286.1z"/>
					</defs>
					<clipPath id="SVGID_116_">
						<use xlink:href="#SVGID_115_"  style="overflow:visible;"/>
					</clipPath>
					<g class="st108">
						<path class="st107" d="M107.47,286.1l-12.79-7.43c-0.17-0.1-0.33-0.22-0.48-0.36l12.79,7.43
							C107.14,285.88,107.3,286,107.47,286.1"/>
						<path class="st106" d="M107,285.74l-12.79-7.43c-0.21-0.2-0.39-0.43-0.55-0.7l12.79,7.43
							C106.6,285.32,106.79,285.55,107,285.74"/>
						<path class="st109" d="M106.45,285.05l-12.79-7.43c-0.13-0.23-0.24-0.48-0.33-0.76l12.79,7.43
							C106.21,284.56,106.32,284.82,106.45,285.05"/>
						<path class="st110" d="M106.12,284.29l-12.79-7.43c-0.08-0.27-0.15-0.56-0.19-0.87l12.79,7.43
							C105.97,283.73,106.03,284.02,106.12,284.29"/>
						<path class="st111" d="M105.93,283.42l-12.79-7.43c-0.03-0.25-0.05-0.52-0.05-0.8l12.79,7.43
							C105.88,282.9,105.9,283.16,105.93,283.42"/>
					</g>
				</g>
				<g>
					<polygon class="st112" points="105.88,282.62 93.09,275.19 93.08,272.84 105.88,280.28 					"/>
				</g>
				<g>
					<polygon class="st113" points="111.3,270.89 98.5,263.45 448.1,61.61 460.9,69.05 					"/>
				</g>
				<g>
					<path class="st114" d="M460.9,69.05c2.99-1.73,5.45-0.33,5.46,3.11l0.01,2.34c0.01,3.43-2.43,7.66-5.42,9.39l-349.6,201.84
						c-2.99,1.73-5.45,0.32-5.46-3.11l-0.01-2.34c-0.01-3.44,2.43-7.66,5.42-9.39L460.9,69.05z"/>
				</g>
				<g class="st0">
					<defs>
						<path id="SVGID_117_" class="st0" d="M105.88,280.28l-12.79-7.43c-0.01-3.44,2.43-7.66,5.42-9.39l12.79,7.43
							C108.3,272.62,105.87,276.84,105.88,280.28z"/>
					</defs>
					<clipPath id="SVGID_118_">
						<use xlink:href="#SVGID_117_"  style="overflow:visible;"/>
					</clipPath>
					<g class="st115">
						<path class="st111" d="M105.88,280.28l-12.79-7.43c0-0.1,0-0.2,0.01-0.3l12.79,7.43
							C105.88,280.08,105.88,280.18,105.88,280.28"/>
						<path class="st116" d="M105.88,279.98l-12.79-7.43c0.02-0.56,0.1-1.14,0.24-1.73l12.79,7.43
							C105.99,278.84,105.9,279.42,105.88,279.98"/>
						<path class="st117" d="M106.12,278.25l-12.79-7.43c0.23-0.96,0.6-1.93,1.08-2.85l12.79,7.43
							C106.72,276.32,106.35,277.29,106.12,278.25"/>
						<path class="st116" d="M107.21,275.4l-12.79-7.43c0.31-0.59,0.67-1.16,1.06-1.69l12.79,7.43
							C107.88,274.24,107.52,274.81,107.21,275.4"/>
						<path class="st111" d="M108.27,273.7l-12.79-7.43c0.27-0.36,0.55-0.71,0.86-1.04l12.79,7.43
							C108.82,272.99,108.54,273.34,108.27,273.7"/>
						<path class="st110" d="M109.12,272.67l-12.79-7.43c0.26-0.29,0.54-0.55,0.82-0.8l12.79,7.43
							C109.66,272.11,109.39,272.38,109.12,272.67"/>
						<path class="st109" d="M109.95,271.86l-12.79-7.43c0.28-0.25,0.57-0.47,0.87-0.67l12.79,7.43
							C110.52,271.39,110.23,271.62,109.95,271.86"/>
						<path class="st106" d="M110.82,271.19l-12.79-7.43c0.16-0.11,0.32-0.21,0.48-0.3l12.79,7.43
							C111.14,270.98,110.98,271.08,110.82,271.19"/>
					</g>
				</g>
			</g>
		</g>
	</g>
	<g>
		<g>
			<g class="st0">
				<g>
					<polygon class="st118" points="227.95,325.47 215.16,318.03 242.76,314.33 255.55,321.76 					"/>
				</g>
				<g>
					<polygon class="st119" points="255.4,269.44 255.48,297.98 227.95,325.47 255.55,321.76 255.63,349.66 200.42,352.72 
						200.35,329.81 					"/>
				</g>
				<g>
					<polygon class="st120" points="200.42,352.72 187.62,345.28 187.56,322.37 200.35,329.81 					"/>
				</g>
				<g>
					<polygon class="st121" points="200.35,329.81 187.56,322.37 242.61,262.01 255.4,269.44 					"/>
				</g>
			</g>
			<g class="st0">
				<g>
					<polygon class="st119" points="308.25,233.69 292.85,331.74 279.81,339.26 293.91,241.97 					"/>
				</g>
				<g>
					<polygon class="st122" points="279.81,339.26 267.02,331.83 281.11,234.54 293.91,241.97 					"/>
				</g>
				<g>
					<polygon class="st123" points="293.91,241.97 281.11,234.54 295.46,226.26 308.25,233.69 					"/>
				</g>
			</g>
			<g class="st0">
				<g>
					<polygon class="st120" points="333.42,304.75 320.63,297.31 320.56,273.77 333.35,281.21 					"/>
				</g>
				<g>
					<polygon class="st124" points="333.35,281.21 320.56,273.77 354.5,237.58 367.29,245.02 					"/>
				</g>
				<g>
					<polygon class="st119" points="333.19,224.53 389.91,220.36 389.98,243.27 333.42,304.75 333.35,281.21 367.29,245.02 
						333.26,247.34 					"/>
				</g>
				<g>
					<polygon class="st125" points="333.19,224.53 320.4,217.1 377.12,212.93 389.91,220.36 					"/>
				</g>
				<g>
					<polygon class="st120" points="333.26,247.34 320.47,239.91 320.4,217.1 333.19,224.53 					"/>
				</g>
			</g>
		</g>
	</g>
</g>
<g id="code">
	<g>
		<g class="st0">
			<g>
				<polygon class="st118" points="229.93,325.47 217.14,318.04 244.74,314.32 257.53,321.76 				"/>
			</g>
			<g>
				<polygon class="st119" points="257.38,269.45 257.46,297.97 229.93,325.47 257.53,321.76 257.61,349.66 202.4,352.72 
					202.33,329.8 				"/>
			</g>
			<g>
				<polygon class="st120" points="202.4,352.72 189.61,345.29 189.54,322.37 202.33,329.8 				"/>
			</g>
			<g>
				<polygon class="st121" points="202.33,329.8 189.54,322.37 244.59,262.01 257.38,269.45 				"/>
			</g>
		</g>
		<g class="st0">
			<g>
				<polygon class="st119" points="310.23,233.7 294.82,331.74 281.79,339.27 295.88,241.98 				"/>
			</g>
			<g>
				<polygon class="st122" points="281.79,339.27 268.99,331.84 283.09,234.55 295.88,241.98 				"/>
			</g>
			<g>
				<polygon class="st123" points="295.88,241.98 283.09,234.55 297.44,226.26 310.23,233.7 				"/>
			</g>
		</g>
		<g class="st0">
			<g>
				<polygon class="st120" points="335.4,304.75 322.6,297.32 322.54,273.78 335.33,281.21 				"/>
			</g>
			<g>
				<polygon class="st124" points="335.33,281.21 322.54,273.78 356.47,237.59 369.27,245.03 				"/>
			</g>
			<g>
				<polygon class="st119" points="335.17,224.54 391.89,220.36 391.96,243.28 335.4,304.75 335.33,281.21 369.27,245.03 
					335.23,247.34 				"/>
			</g>
			<g>
				<polygon class="st125" points="335.17,224.54 322.38,217.11 379.1,212.93 391.89,220.36 				"/>
			</g>
			<g>
				<polygon class="st120" points="335.23,247.34 322.44,239.91 322.38,217.11 335.17,224.54 				"/>
			</g>
		</g>
	</g>
</g>
</svg>
